<?xml version="1.0" encoding="UTF-8"?>
<svg id="Layer_1" xmlns="http://www.w3.org/2000/svg" version="1.1" viewBox="0 0 262.91 145.64">
  <!-- Generator: Adobe Illustrator 29.5.1, SVG Export Plug-In . SVG Version: 2.1.0 Build 141)  -->
  <path d="M154.76,41.3c-.22-5.17-2.43-6.2-3.96-10.21-.43-1.14-.49-2.22-.99-3.37-3.15-7.28-15-10.99-22.36-10.18-13.53,1.47-26.6,15.35-24.4,29.44.53,3.36,6.02,13.38,8.15,16.38,1.69,2.37,8.04,6.81,10.84,7.43,4.8,1.06,13.01,2.36,17.74,1.36,11.91-2.52,15.42-20.56,14.98-30.85ZM135.21,27.61c.36.07,1.78.85,2.02,1.11,1.61,1.77-.36,5.23-2.51,5.39-4.55.33-4.01-7.45.49-6.5ZM116.28,31.15c4.04-.36,3.24,5.89-.42,6.43-4.52.66-3.11-6.12.42-6.43ZM143.79,56.66c-1.41.55-5,1.53-6.19.74-1.22-.81-.93-2.1-1.36-3.28-.81-2.17-2.82-8.19-5.12-8.78-1.17-.3-3.89-.06-4.85.74-2.41,2.04-2.26,10.65-3.1,13.74-1.46.44-4.51,1.58-5.13-.31-1.97-6.05-.07-15.29,5.45-18.94,3.7-2.44,10.57-3.77,14.06-.3,1.75,4.64,6.05,9.77,6.56,14.72.06.58,0,1.17-.32,1.67ZM199.36,54.06c-.31-.31-2.48-.8-3.07-.88-1.25-.16-6.82.12-7.18-1,.62-7.1,2.07-14.14,2.69-21.23.18-2.1.57-5.39.54-7.36,0-.46-.37-2.53-.61-2.79-.65-.71-4.02-.91-4.72-.37-.82,2.38-1.54,5.34-1.94,7.87-.97,5.99-1.33,12.23-2.87,18.13-.26.99-1.14,3.5-1.96,4.05-.6.55-1.28-.01-1.93-.02-1.89-.04-10.6-.41-11.73-1.35-1.24-1.03,1.11-6.7,1.74-8.11,1.31-2.89,3.49-5.54,4.83-8.26.71-1.44.92-3.05,1.52-4.48.92-2.19,6.25-8.1,2.48-9.64-4.09-1.68-6.84,5.16-8.38,8.1-4.28,8.16-7.49,16.89-11.25,25.3.85,3.95,2.02,2.96,4.99,3.35,4.92.63,10.77.92,15.47,1.97,5.87,1.31,2.51,11.17,2.93,15.34,0,1.93,6.83,1.25,7.04.92l1.1-14.04c1.05-1.28,7.26-.19,9.03-.77,1.17-.38,2.08-3.92,1.28-4.73ZM100.24,51.17c-.46-1.6-7.24,1.37-8.64-1.47l-.59-28.24c-.2-.81-4.17-1.03-4.85-.39-1.65,1.56-2.28,15.57-2.55,18.58-.08.8-.43,1.66-.51,2.49-.13,1.35.12,6.45-.68,7.23-.62.62-4.1-.25-5.18-.22-2.23.05-4.42,1.2-6.8,1.32-.97.04-3.4.25-3.63-1.01-.08-.42,2.34-7.1,2.72-8.08,1.22-3.13,2.67-6.28,3.98-9.38,1.49-3.51,4.31-7.16,3.06-11.15-2.67-.5-5.19-1.85-6.79,1.14-3.27,6.11-5.55,14.93-7.59,21.59-1.2,3.94-4.1,8.91-2.27,13.03.88,1.97,3.96,2.18,5.85,2,3.12-.31,6.38-.77,9.55-.8,2.71-.03,5.37.04,8.05.41,1.41,3.75.71,8.25,1.9,12.22.47.79,5.22.7,6.21.29,1.02-.43.54-5.26.6-6.51.05-1.31.02-2.55.05-3.82.07-2.98,4.55-2.72,6.66-3.37.35-.28,1.56-5.47,1.45-5.86ZM56.96,80.84c-.67-1.03-3.09-1.33-4.18-.87-.49.21-.7.85-.87,1.31-1.92,5.08-2.58,11.8-3.82,17.18-.74,3.19-2.11,6.23-2.32,9.54-.44-.05-.41-.42-.51-.71-2.04-5.8-5.73-10.43-8.17-15.83-.68-1.5-2.71-8.54-3.58-8.96-.72-.35-4.2-.46-4.42.76l-2.79,13.84-4.1,13.63-10.53-24.23c-.58-.34-1.62.55-2.34.71-1.21.26-2.65.15-3.84.64-.48.76,1.31,4.68,1.73,5.69,3.76,9.02,8.53,17.63,11.9,26.82.78,1.15,6.43,1.45,7.15-.38,1.23-3.92,1.89-7.98,3.08-11.92.76-2.54,2.13-7.07,3.21-9.33.09-.21.47-.98.67-.82.23,2.54,2.19,4.57,3.02,6.67.77,1.95.95,4.26,1.84,6.33.45,1.05,3.95,7.2,4.6,7.4l5.81-.9c1.11-2.63,1.47-5.43,2.19-8.16,1.89-7.08,4.77-15.36,5.9-22.46.19-1.14.83-5.23.37-5.95ZM241.62,99.44c-1.88-4.71-4.89-3.35-8.81-3.72-2.49-.23-4.94-.94-7.39-1.32-2.79-.44-9.79-.04-10.14-4.06-.11-1.3,2.57-4.64,3.96-4.91,1.72-.35,5.42-.52,7,.24,1.92.92.9,2.71,1.94,3.78,1.13,1.18,5.48.07,6.76-.85,1.16-.84,1.24-2.58.99-3.91-.26-1.38-4.58-2.47-5.98-3.02-2.88-1.13-3.47-2.08-6.87-1.95-6.31.24-10.27,3.01-13.96,7.85-2.32,3.06-3.09,5.91-.57,8.98,5.93,7.19,11.68,5.24,19.89,4.63,1.2-.09,2.11-.72,3.36-.37,1.6.46,4.34,3.95,4.09,5.63-.23,1.52-5.8,4.66-7.21,4.73-1.91.1-4.27-.98-5.97-1.8-1.66-.8-2.71-1.31-4.48-2.05-1.62-.68-2.67-2.26-4.74-1.19-1.99,1.03-1.25,4.55-1.76,6.38l.16.59c.23.57,3.17,3.19,3.79,3.58,3.39,2.15,6.86.5,10.34.08,2.28-.28,5.55.11,7.56-.89,4.99-2.49,10.24-10.91,8.04-16.43ZM126.65,93.72c-1.38-2.8-9.07-11.12-11.85-12.41-1.85-.86-4.15-1.08-6.17-.79-1.59.23-7.11,2.76-8.56,3.7-4.57,2.95-6.91,13.61-6.35,18.74.16,1.5,3.03,8.14,3.85,9.78,1.98,3.97,7.04,6.67,11.34,7.19,1.85.22,8.38-1.39,10.21-2.18,7.27-3.14,10.84-17.35,7.53-24.03ZM121.21,105.38c-.33,2.67-2.24,5.07-4.53,6.37-2.58,1.46-4.26.83-7.03.87-2.09.04-3.93,1.25-5.36-.89-.97-1.46-3.4-7.88-3.5-9.58-.32-5.89,2.17-13.89,8.67-15.09,3.04-.57,5.46,1.81,6.99,4.05,2.84,4.17,5.4,9.06,4.76,14.27ZM154.61,83.73c-2.97-2.17-7.39-3.58-11.09-3.19-3.33.34-8.46,3.31-10.41,6.2-4.72,6.97-5.28,16.07-1.92,23.71,1.89,4.32,7.84,6.52,12.26,7.09,3.73.49,5.95.43,9.31-1.3,5.25-2.71,7.7-4.96,8.98-10.92,1.82-8.42-.07-16.41-7.13-21.59ZM153.1,110.03c-1.29,1.19-5.67,2.06-7.51,2.3-2.19.29-4.22.1-6.29-.73-1.35-.53-2.09-2.73-2.45-4.09-1.87-6.95-2.35-12.08,2.38-17.91,1.75-2.16,2.9-2.56,5.66-2.79,1.86-.16,4.36-.35,5.62,1.3.61.79,5.22,8.62,5.42,9.3.87,2.99-.47,10.43-2.83,12.62ZM250.57,80.51c-1.53.46-2.92,4.7-3.12,6.15-.29,2.1.16,4.24-.1,6.44-.4,3.36-2.38,10.46-1.39,13.46.64,1.97,4.01,2.23,4.62.15,1-3.38.89-7.42,1.46-10.82.59-3.55,2.26-8.58,2.43-12.04.11-2.32-1.51-4.05-3.9-3.34ZM92.08,115.24c-.53-9.65.98-20.35,0-30.01-.36-3.55-2.23-5.64-5.46-3.02l-.51,17.49-16.91,1.21v-18.96c0-1.14-4.69-1.04-5.55-.91-.47.15-.69,2.92-.73,3.63-.31,5.53.27,11.37,0,16.93l.57,5.98.12,10.24c.67,1.37,3.61-.09,4.65-.54.32-2.5-.05-5.3.39-7.78.07-.4.13-.44.46-.64.21-.13,4.35-1.08,4.86-1.13,2.39-.26,8.55-.29,10.91-.02,1.36.16,1.75,2.61,1.96,3.77.48,2.65.47,5.56.61,8.25l4.73-.31c.95-.32-.05-3.25-.1-4.18ZM203.63,90.84c-2.74-3.46-4.74-3.27-8.47-4.88-3-1.3-6.25-3.21-9.51-3.85-1.81-.35-3.93-.11-5.7-.3-2.27-.24-4.44-1.06-6.77-.82-4.29,10.34-4.9,21.73-8.33,32.35.05.89,3.68,2.1,4.54,2.23.84.13,2.19.03,2.79-.62.88-.96,1.53-8.74,1.91-10.5,7.11.24,14.94,4.09,21.94,2.19,5.45-1.47,8-3.56,9.38-9.16.77-3.14.11-4.26-1.78-6.64ZM195.26,99.46c-.8.9-2.43,1.06-3.56.87l-16.24-3.52,2.6-8.41c3.94.63,8.06,1.11,11.89,2.22,1.87.54,6.53,1.95,6.75,4.18.06.6-1.06,4.23-1.44,4.66ZM246.92,110.25c-.28,0-1.85.57-2.14.74-2.97,1.85.43,7.69,3.32,4.83,1.51-1.49,1.02-5.52-1.18-5.57Z"/>
  <path d="M154.76,41.3c-.22-5.17-2.43-6.2-3.96-10.21-.43-1.14-.49-2.22-.99-3.37-3.15-7.28-15-10.99-22.36-10.18-13.53,1.47-26.6,15.35-24.4,29.44.53,3.36,6.02,13.38,8.15,16.38,1.69,2.37,8.04,6.81,10.84,7.43,4.8,1.06,13.01,2.36,17.74,1.36,11.91-2.52,15.42-20.56,14.98-30.85ZM135.21,27.61c.36.07,1.78.85,2.02,1.11,1.61,1.77-.36,5.23-2.51,5.39-4.55.33-4.01-7.45.49-6.5ZM116.28,31.15c4.04-.36,3.24,5.89-.42,6.43-4.52.66-3.11-6.12.42-6.43ZM143.79,56.66c-1.41.55-5,1.53-6.19.74-1.22-.81-.93-2.1-1.36-3.28-.81-2.17-2.82-8.19-5.12-8.78-1.17-.3-3.89-.06-4.85.74-2.41,2.04-2.26,10.65-3.1,13.74-1.46.44-4.51,1.58-5.13-.31-1.97-6.05-.07-15.29,5.45-18.94,3.7-2.44,10.57-3.77,14.06-.3,1.75,4.64,6.05,9.77,6.56,14.72.06.58,0,1.17-.32,1.67Z"/>
  <path d="M33.23,97.91c-.21-.16-.58.61-.68.82-1.08,2.26-2.45,6.8-3.21,9.33-1.19,3.94-1.85,8-3.08,11.92-.72,1.83-6.37,1.53-7.15.38-3.37-9.19-8.15-17.8-11.9-26.82-.42-1.01-2.22-4.93-1.74-5.69,1.19-.49,2.63-.39,3.85-.65.72-.15,1.76-1.04,2.34-.7l10.53,24.22,4.1-13.63,2.79-13.84c.22-1.22,3.7-1.11,4.42-.76.86.42,2.9,7.46,3.58,8.96,2.44,5.4,6.13,10.03,8.17,15.83.1.3.07.66.51.71.21-3.31,1.58-6.35,2.32-9.54,1.24-5.38,1.9-12.1,3.82-17.18.17-.46.38-1.1.87-1.31,1.09-.46,3.51-.16,4.18.87.46.72-.18,4.8-.36,5.95-1.13,7.1-4.02,15.38-5.9,22.46-.73,2.73-1.08,5.53-2.2,8.17l-5.81.9c-.65-.2-4.15-6.36-4.59-7.4-.89-2.07-1.08-4.38-1.85-6.33-.83-2.1-2.78-4.13-3.01-6.67Z"/>
  <path d="M86.16,21.07c.68-.64,4.65-.42,4.84.39l.6,28.25c1.4,2.84,8.18-.14,8.64,1.47.11.39-1.1,5.58-1.45,5.86-2.11.65-6.59.39-6.66,3.37-.03,1.27,0,2.51-.06,3.81s.43,6.08-.6,6.51-5.74.5-6.21-.28c-1.19-3.97-.49-8.47-1.9-12.22-2.68-.38-5.35-.45-8.05-.42-3.17.03-6.43.49-9.55.8-1.88.19-4.97-.03-5.85-2-1.83-4.12,1.07-9.09,2.27-13.03,2.04-6.66,4.32-15.48,7.59-21.59,1.6-2.99,4.12-1.64,6.79-1.14,1.25,3.99-1.57,7.64-3.06,11.15-1.31,3.1-2.76,6.25-3.98,9.38-.38.98-2.81,7.66-2.73,8.08.24,1.26,2.67,1.05,3.63,1.01,2.38-.12,4.57-1.27,6.8-1.32,1.08-.02,4.56.84,5.18.22.79-.78.55-5.88.68-7.23.08-.84.43-1.69.51-2.49.27-3.01.9-17.02,2.55-18.58Z"/>
  <path d="M191.73,20.8c.24.26.61,2.34.61,2.8.03,1.97-.36,5.26-.55,7.36-.62,7.09-2.07,14.13-2.69,21.23.36,1.12,5.93.85,7.18,1.01.58.07,2.75.56,3.07.88.8.8-.11,4.34-1.28,4.72-1.78.58-7.98-.51-9.03.77l-1.1,14.03c-.21.34-7.04,1.01-7.04-.92-.42-4.16,2.94-14.03-2.93-15.34-4.7-1.05-10.55-1.33-15.47-1.97-2.97-.38-4.13.6-4.99-3.35,3.76-8.41,6.97-17.14,11.25-25.3,1.54-2.94,4.29-9.78,8.38-8.1,3.76,1.54-1.56,7.45-2.48,9.64-.6,1.43-.81,3.04-1.52,4.48-1.34,2.72-3.52,5.37-4.83,8.26-.64,1.41-2.99,7.08-1.74,8.11,1.13.94,9.84,1.31,11.73,1.34.65.01,1.33.58,1.93.02.82-.54,1.7-3.06,1.96-4.04,1.55-5.9,1.91-12.14,2.87-18.13.41-2.53,1.13-5.49,1.94-7.87.7-.54,4.07-.34,4.72.37Z"/>
  <path d="M203.63,90.84c-2.74-3.46-4.74-3.27-8.47-4.88-3-1.3-6.25-3.21-9.51-3.85-1.81-.35-3.93-.11-5.7-.3-2.27-.24-4.44-1.06-6.77-.82-4.29,10.34-4.9,21.73-8.33,32.35.05.89,3.68,2.1,4.54,2.23.84.13,2.19.03,2.79-.62.88-.96,1.53-8.74,1.91-10.5,7.11.24,14.94,4.09,21.94,2.19,5.45-1.47,8-3.56,9.38-9.16.77-3.14.11-4.26-1.78-6.64ZM195.26,99.46c-.8.9-2.43,1.06-3.56.87l-16.24-3.52,2.6-8.41c3.94.63,8.06,1.11,11.89,2.22,1.87.54,6.53,1.95,6.75,4.18.06.6-1.06,4.23-1.44,4.66Z"/>
  <path d="M223.08,79.72c3.4-.13,3.99.82,6.88,1.96,1.4.55,5.72,1.64,5.98,3.02s.17,3.07-.99,3.91c-1.28.92-5.63,2.03-6.77.86-1.03-1.07-.01-2.86-1.94-3.78-1.58-.75-5.27-.58-6.99-.24-1.39.28-4.07,3.61-3.96,4.91.34,4.02,7.35,3.62,10.13,4.06,2.46.38,4.9,1.1,7.39,1.33,3.92.36,6.93-1,8.82,3.72,2.2,5.52-3.05,13.93-8.04,16.42-2.01,1-5.28.61-7.56.89-3.48.42-6.96,2.07-10.34-.07-.62-.39-3.56-3.02-3.8-3.58l-.16-.59c.52-1.83-.23-5.35,1.77-6.39s3.11.52,4.73,1.19c1.77.74,2.82,1.25,4.49,2.05s4.05,1.9,5.96,1.8c1.41-.07,6.98-3.21,7.21-4.73.25-1.69-2.49-5.17-4.09-5.63-1.24-.36-2.15.27-3.36.36-8.21.61-13.96,2.57-19.89-4.63-2.53-3.07-1.75-5.92.57-8.98,3.68-4.84,7.65-7.61,13.95-7.85Z"/>
  <path d="M126.65,93.72c-1.38-2.8-9.07-11.12-11.85-12.41-1.85-.86-4.15-1.08-6.17-.79-1.59.23-7.11,2.76-8.56,3.7-4.57,2.95-6.91,13.61-6.35,18.74.16,1.5,3.03,8.14,3.85,9.78,1.98,3.97,7.04,6.67,11.34,7.19,1.85.22,8.38-1.39,10.21-2.18,7.27-3.14,10.84-17.35,7.53-24.03ZM121.21,105.38c-.33,2.67-2.24,5.07-4.53,6.37-2.58,1.46-4.26.83-7.03.87-2.09.04-3.93,1.25-5.36-.89-.97-1.46-3.4-7.88-3.5-9.58-.32-5.89,2.17-13.89,8.67-15.09,3.04-.57,5.46,1.81,6.99,4.05,2.84,4.17,5.4,9.06,4.76,14.27Z"/>
  <path d="M154.61,83.73c-2.97-2.17-7.39-3.58-11.09-3.19-3.33.34-8.46,3.31-10.41,6.2-4.72,6.97-5.28,16.07-1.92,23.71,1.89,4.32,7.84,6.52,12.26,7.09,3.73.49,5.95.43,9.31-1.3,5.25-2.71,7.7-4.96,8.98-10.92,1.82-8.42-.07-16.41-7.13-21.59ZM153.1,110.03c-1.29,1.19-5.67,2.06-7.51,2.3-2.19.29-4.22.1-6.29-.73-1.35-.53-2.09-2.73-2.45-4.09-1.87-6.95-2.35-12.08,2.38-17.91,1.75-2.16,2.9-2.56,5.66-2.79,1.86-.16,4.36-.35,5.62,1.3.61.79,5.22,8.62,5.42,9.3.87,2.99-.47,10.43-2.83,12.62Z"/>
  <path d="M69.2,100.91l16.91-1.21.51-17.49c3.23-2.62,5.11-.52,5.46,3.02.98,9.66-.53,20.35,0,30.01.05.94,1.05,3.86.11,4.18l-4.73.31c-.14-2.69-.14-5.6-.62-8.25-.21-1.17-.6-3.61-1.95-3.77-2.36-.28-8.53-.25-10.92.01-.51.06-4.64,1.01-4.86,1.14-.33.2-.39.24-.46.63-.44,2.49-.07,5.28-.39,7.79-1.03.45-3.98,1.9-4.64.54l-.12-10.24-.57-5.98c.27-5.57-.32-11.4,0-16.93.04-.71.26-3.48.73-3.63.86-.13,5.55-.23,5.55.92v18.95Z"/>
  <path d="M250.57,80.51c2.39-.71,4.02,1.01,3.9,3.34-.17,3.46-1.84,8.49-2.43,12.04-.57,3.4-.46,7.43-1.46,10.81-.62,2.08-3.98,1.82-4.63-.14-.99-3,1-10.1,1.39-13.46.26-2.2-.18-4.34.1-6.44.2-1.45,1.59-5.7,3.12-6.15Z"/>
  <path d="M248.1,115.82c-2.9,2.86-6.3-2.98-3.32-4.82.28-.18,1.86-.75,2.14-.74,2.2.05,2.69,4.08,1.18,5.56Z"/>
</svg>