<?xml version="1.0" encoding="UTF-8"?>
<svg id="Layer_1" xmlns="http://www.w3.org/2000/svg" version="1.1" viewBox="0 0 97.09 86.73">
  <!-- Generator: Adobe Illustrator 29.5.1, SVG Export Plug-In . SVG Version: 2.1.0 Build 141)  -->
  <defs>
    <style>
      .st0 {
        fill: #fff;
      }
    </style>
  </defs>
  <path class="st0" d="M58.86,29.29c-1.24-.65-2.99,1.73-4.66,1.94-2.22.27-4.54-1.01-7.42-.41-11.42,2.36-15.03,25.98,2,23.67,5.48-.74,3.53-1.36,9.85-.54,3.21.42,6.43-.54,8.73-2.84,4.1-4.11,4.29-14.67,2.61-19.86-1.7-5.24-7-10.87-12.59-11.81-2.88-.49-15.01-1.06-17.52-.42-7.77,1.98-13.59,16.12-13.48,23.27.08,5.24,2.96,14.31,7.26,17.67,1.33,1.03,11.82,5.29,13.54,5.44,5.47.49,21.98-.19,18.78-8.87-5.83-2.8-12.24,3.76-18.51,2.09-.58-.15-9.39-5.36-10.25-6.01-5.04-3.8-5.07-8.14-2.84-13.61,1.53-3.77,6.83-13.1,10.9-14.04.97-.22,8.18-.89,8.95-.77,2.18.33,8.95,6.27,9.43,8.52.39,1.81-.48,3.04-.41,4.68.11,2.54,4,9.85-.97,10.57-3.54.52-3.01-7.73-2.87-9.97.13-2.25,2.21-7.26-.53-8.7ZM52.84,44.45c-.37.64-4.52,3.08-5.34,3.35-5.64,1.82-5.55-7.74-.97-9.65.76-.32,3.29-.82,4.1-.84,3.12-.08,3.47,4.96,2.21,7.14Z"/>
  <path d="M58.86,29.29c-1.24-.65-2.99,1.73-4.66,1.94-2.22.27-4.54-1.01-7.42-.41-11.42,2.36-15.03,25.98,2,23.67,5.48-.74,3.53-1.36,9.85-.54,3.21.42,6.43-.54,8.73-2.84,4.1-4.11,4.29-14.67,2.61-19.86-1.7-5.24-7-10.87-12.59-11.81-2.88-.49-15.01-1.06-17.52-.42-7.77,1.98-13.59,16.12-13.48,23.27.08,5.24,2.96,14.31,7.26,17.67,1.33,1.03,11.82,5.29,13.54,5.44,5.47.49,21.98-.19,18.78-8.87-5.83-2.8-12.24,3.76-18.51,2.09-.58-.15-9.39-5.36-10.25-6.01-5.04-3.8-5.07-8.14-2.84-13.61,1.53-3.77,6.83-13.1,10.9-14.04.97-.22,8.18-.89,8.95-.77,2.18.33,8.95,6.27,9.43,8.52.39,1.81-.48,3.04-.41,4.68.11,2.54,4,9.85-.97,10.57-3.54.52-3.01-7.73-2.87-9.97.13-2.25,2.21-7.26-.53-8.7ZM53.41,46.43c-.37.64-4.54,2.27-5.36,2.54-5.64,1.82-6.09-8.91-1.51-10.82.76-.32,3.29-.82,4.1-.84,3.12-.08,4.03,6.94,2.77,9.12Z"/>
</svg>