<?xml version="1.0" encoding="UTF-8"?>
<svg id="Layer_1" xmlns="http://www.w3.org/2000/svg" version="1.1" viewBox="0 0 44 44">
  <!-- Generator: Adobe Illustrator 29.5.1, SVG Export Plug-In . SVG Version: 2.1.0 Build 141)  -->
  <defs>
    <style>
      .st0 {
        fill: #fff;
      }
    </style>
  </defs>
  <path class="st0" d="M31.37,10.2c-1.15-.6-2.75,1.59-4.29,1.78-2.04.25-4.18-.93-6.82-.37-10.51,2.17-13.82,23.89,1.84,21.76,5.04-.68,3.24-1.25,9.05-.49,2.96.38,5.92-.5,8.03-2.62,3.77-3.78,3.95-13.49,2.4-18.26-1.56-4.82-6.44-9.99-11.58-10.86-2.64-.45-13.8-.97-16.11-.39C6.75,2.58,1.4,15.58,1.5,22.15c.07,4.82,2.72,13.16,6.67,16.25,1.23.95,10.87,4.87,12.45,5.01,5.03.45,20.22-.18,17.27-8.16-5.36-2.58-11.25,3.46-17.02,1.92-.53-.14-8.63-4.93-9.42-5.53-4.64-3.49-4.67-7.48-2.61-12.51,1.4-3.47,6.28-12.05,10.02-12.91.89-.21,7.52-.82,8.23-.71,2,.3,8.23,5.76,8.67,7.83.36,1.67-.44,2.8-.38,4.31.1,2.33,3.68,9.06-.89,9.72-3.25.48-2.77-7.11-2.64-9.17.12-2.07,2.03-6.68-.48-8ZM26.35,25.96c-.34.59-4.18,2.09-4.93,2.33-2.02.65-3.31-.44-3.9-2.12-1.2-2.01-.5-5.91,1.84-7.45.21-.15.43-.27.67-.37.7-.3,3.02-.76,3.77-.78h.06c1.4,0,2.18,1.13,2.47,2.52.69,2.02.7,4.7.02,5.87Z"/>
  <path d="M31.37,10.2c-1.15-.6-2.75,1.59-4.29,1.78-2.04.25-4.18-.93-6.82-.37-10.51,2.17-13.82,23.89,1.84,21.76,5.04-.68,3.24-1.25,9.05-.49,2.96.38,5.92-.5,8.03-2.62,3.77-3.78,3.95-13.49,2.4-18.26-1.56-4.82-6.44-9.99-11.58-10.86-2.64-.45-13.8-.97-16.11-.39C6.75,2.58,1.4,15.58,1.5,22.15c.07,4.82,2.72,13.16,6.67,16.25,1.23.95,10.87,4.87,12.45,5.01,5.03.45,20.22-.18,17.27-8.16-5.36-2.58-11.25,3.46-17.02,1.92-.53-.14-8.63-4.93-9.42-5.53-4.64-3.49-4.67-7.48-2.61-12.51,1.4-3.47,6.28-12.05,10.02-12.91.89-.21,7.52-.82,8.23-.71,2,.3,8.23,5.76,8.67,7.83.36,1.67-.44,2.8-.38,4.31.1,2.33,3.68,9.06-.89,9.72-3.25.48-2.77-7.11-2.64-9.17.12-2.07,2.03-6.68-.48-8ZM26.35,25.96c-.34.59-4.18,2.09-4.93,2.33-2.02.65-3.31-.44-3.9-2.12-.83-2.4-.21-6,1.84-7.45.21-.15.43-.27.67-.37.7-.3,3.02-.76,3.77-.78h.06c1.16.01,1.99,1.1,2.47,2.52.69,2.02.7,4.7.02,5.87Z"/>
</svg>