<?xml version="1.0" encoding="UTF-8"?>
<svg id="Layer_1" data-name="Layer 1" xmlns="http://www.w3.org/2000/svg" viewBox="0 0 150 96.42">
  <defs>
    <style>
      .cls-1 {
        fill: #fff;
      }
    </style>
  </defs>
  <path class="cls-1" d="M29.74,86.23c-4.02.37-9.53,1.67-13.31,1.82-2.07.08-3.94-.98-6.03-.81-.53-1.97-2.97-8.24-.91-9.55,1.64-1.03,7.89.14,10.27.04,1.35-.06,8.19-1.09,8.99-1.69,1.37-1.01.81-3.88-.91-4.21-2.09-.4-6.8-.04-9.22-.02-2.17.01-4.42-.08-6.64,0-1.05.04-2.04.51-3.12.38v-9.02c2.12-1.61,4.49-1.06,6.81-1.29,2.38-.24,5-.64,7.37-.76,2.36-.12,4.59.51,7.29-.06,1.37-.29,4.44-1.51,4.7-3.06.73-4.4-5.63-2.85-8.27-3.14-6.53-.73-11.06-1.16-17.7-1.06C4.86,53.88-.04,52.22,0,58.03c.01,1.39.82,2.76,1.03,4.15,1.33,8.61,1.01,15.92.85,24.57-.05,2.74-1.81,7.25,2.4,7.87,3.26.48,5.65-.37,8.43-.36,2.31,0,4.74.35,7.37.36,4,.03,8.45,1.03,12.08-.08,1.33-.41,3.94-1.36,4.26-2.74,1.18-5.06-2.46-5.97-6.69-5.58ZM71.86,90.81c-.9-5.78-6.22-1.61-9.43-1.45-.96.05-2.04-.33-3.25-.23-1.17.1-3,.98-3.98.75-.41-.1-.45-1.05-.98-1.31-1.79-.9-4.08.89-5.91.92.47-5.24-.88-10.75-.75-16.02.11-4.82,1.96-12.01,1.64-16.41-.22-2.94-.87-1.53-2.2-2.5-.47-.34-.56-1.21-1.35-1.59-1.89-.9-3.23.19-3.72,2.01-2.42,8.99.67,21.32.34,30.72-.11,3.13-2.09,5.79-1.68,8.38.57,3.57,4.57,2.01,6.79,2.01,7.1,0,13.29.82,20.58-.38,3.17-.52,4.48-1.14,3.89-4.9ZM108.65,89.76c-1.01-4.82-4.73-1.91-7.45-1.71-2.24.16-4.12-1.04-6.25-.74-.86.12-3.14,1.45-3.34,1.45h-6.45c.47-5.24-.88-10.75-.75-16.03.11-4.65,2.08-12.59,1.62-16.68-.14-1.26-.8-2.4-1.21-3.57-1.6-.01-3.86-1.1-5.17.04-1.14.99-1.63,6.81-1.71,8.52-.34,7.65,1.46,16.24,1.19,23.92-.11,3.13-2.09,5.79-1.68,8.38.57,3.57,4.57,2.01,6.79,2.01,7.1-.01,13.29.82,20.58-.38,3.27-.54,4.64-1.36,3.83-5.2ZM141.09,58.09c-2.62-3.96-7.38-11.46-10.26-14.77-1.5-1.73-3.45-3.72-5.98-3.05-.74.2-5.26,3.76-5.8,4.51-1.02,1.41-1.37,3.19-2.28,4.72-2.12,3.53-4.35,6.25-5.84,10.36-.97,2.67-1.37,6.97-2.49,9.29-1.38,2.87-7.26,5.61-5.45,10.44,1.44.52,3.94,1.12,5.36.52,2.46-1.04,3.3-7.69,6.61-8.48,5.05-1.21,14.17-1.66,19.39-1.28,1.15.09,6.94,1.16,7.54,1.67,1.49,1.25-1.72,6.83,1.73,7.84,3.62,1.06,6.05-1.51,6.37-4.86-2.76-5.65-5.43-11.67-8.91-16.9ZM125.85,63.72c-1.99.06-8.29,1.96-7.91-1.97.11-1.17,3.08-6.28,3.9-7.55.67-1.04,3.52-5.36,4.71-5.13,4.31,3.92,7.65,9.01,9.08,14.66-3.25.09-6.53-.11-9.78-.01ZM115.47,1.96l-2.33.85-10.49,14.91c-2.12-3.94-4.31-7.78-7.19-11.21-.74-.88-2.93-3.2-3.94-3.43-.96-.22-4.15.1-4.81.74-.6.58-.55,2.45-.29,3.25.09.29,2.68,4.36,3,4.73.85.98,2.7,2.45,3.83,3.54,1.57,1.5,3.42,2.7,4.72,4.48.19,3.85,1.48,7.86,1.55,11.7.05,2.87-.82,7.06-.71,9.91.13,3.3,3.48,2.49,5.89,2.26,1.12-6.51-.71-13.57,1.34-20.01.93-2.93,4.4-7.33,6.38-9.82,2.98-3.74,8.65-6.78,3.04-11.92ZM72.48,34.33c-4.02.37-9.53,1.67-13.31,1.82-2.07.08-3.94-.98-6.03-.81-.53-1.97-2.97-8.24-.91-9.55,1.64-1.04,7.89.14,10.27.04,1.35-.06,8.19-1.09,8.99-1.69,1.37-1.01.81-3.88-.91-4.21-2.09-.4-6.8-.04-9.22-.02-2.17.01-4.43-.08-6.64,0-1.05.04-2.04.51-3.12.38v-9.02c2.12-1.61,4.49-1.06,6.81-1.29,2.38-.24,5-.64,7.37-.76,2.36-.12,4.59.51,7.29-.06,1.37-.29,4.44-1.51,4.7-3.06.73-4.4-5.63-2.85-8.27-3.14-6.53-.73-11.06-1.16-17.7-1.06-4.21.06-9.12-1.59-9.07,4.22,0,1.39.82,2.76,1.03,4.15,1.33,8.61,1.01,15.92.85,24.57-.05,2.74-1.81,7.25,2.4,7.87,3.26.48,5.65-.37,8.44-.36,2.3.01,4.74.35,7.37.36,4,.03,8.45,1.03,12.07-.08,1.33-.41,3.94-1.36,4.26-2.74,1.18-5.05-2.46-5.97-6.69-5.58ZM35.75,24.92c-.03-6.1,1.04-12.31-.02-18.38-.47-2.67-2.16-4.83-5.03-3.45-.76.76-.44,5.02-.45,6.35-.03,2.93-.24,5.85-.37,8.84-.06,1.22,1.02,2.33-.35,3.7-.93.94-2.03.37-3.15.53-3.49.51-7.72,1.58-11.1,1.79-2.36.15-4.96.16-5.26-2.75l-.57-20.04C8.19-.95,5.21-.01,3.53,1.54c-.03,2.72-.48,5.61-.57,8.26-.24,6.87.87,14.76.4,21.38-.17,2.44-2.34,9.32-.65,11.12,1.21,1.3,5.56,1.11,6.35-.65.34-3.47.49-6.85.19-10.3,1.47.22,2.86-.18,4.24-.29,5.02-.4,10.48-1.43,15.48-1.25.38.01,1.18-.41,1.28-.3l-.57,13.63c3.74,2.33,6.95,1.09,6.85-3.53-.11-4.72-.75-9.99-.77-14.69Z"/>
  <path d="M51.62,20.3c1.07.13,2.06-.34,3.12-.38,2.21-.08,4.46,0,6.63,0,2.42-.01,7.13-.37,9.22.02,1.72.33,2.28,3.19.91,4.21-.8.59-7.64,1.63-8.99,1.69-2.38.1-8.63-1.08-10.27-.04-2.07,1.3.38,7.58.91,9.55,2.09-.17,3.96.89,6.03.81,3.78-.15,9.28-1.45,13.31-1.82,4.23-.39,7.87.53,6.69,5.58-.32,1.38-2.93,2.33-4.26,2.74-3.63,1.12-8.08.11-12.08.08-2.63-.02-5.07-.35-7.37-.36-2.79-.01-5.18.84-8.43.36-4.22-.62-2.45-5.13-2.4-7.87.15-8.65.48-15.97-.85-24.57-.21-1.39-1.02-2.76-1.03-4.15-.04-5.81,4.86-4.15,9.07-4.22,6.64-.1,11.17.33,17.7,1.06,2.63.29,9-1.26,8.27,3.14-.26,1.56-3.33,2.77-4.7,3.06-2.7.57-4.93-.07-7.29.06s-4.99.52-7.37.76c-2.32.23-4.69-.32-6.81,1.29v9.02Z"/>
  <path d="M8.87,72.2c1.07.13,2.06-.34,3.12-.38,2.21-.08,4.46,0,6.63,0,2.42-.01,7.13-.37,9.22.02,1.72.33,2.28,3.19.91,4.21-.8.59-7.64,1.63-8.99,1.69-2.38.1-8.63-1.08-10.27-.04-2.07,1.3.38,7.58.91,9.55,2.09-.17,3.96.89,6.03.81,3.78-.15,9.28-1.45,13.31-1.82,4.23-.39,7.87.53,6.69,5.58-.32,1.38-2.93,2.33-4.26,2.74-3.63,1.12-8.08.11-12.08.08-2.63-.02-5.07-.35-7.37-.36-2.79-.01-5.18.84-8.43.36-4.22-.62-2.45-5.13-2.4-7.87.15-8.65.48-15.97-.85-24.57C.82,60.79.01,59.42,0,58.03c-.04-5.81,4.86-4.15,9.07-4.22,6.64-.1,11.17.33,17.7,1.06,2.63.29,9-1.26,8.27,3.14-.26,1.56-3.33,2.77-4.7,3.06-2.7.57-4.93-.07-7.29.06s-4.99.52-7.37.76c-2.32.23-4.69-.32-6.81,1.29v9.02Z"/>
  <path d="M141.09,58.09c-2.62-3.96-7.38-11.46-10.26-14.77-1.5-1.73-3.45-3.72-5.98-3.05-.74.2-5.26,3.76-5.8,4.51-1.02,1.41-1.37,3.19-2.28,4.72-2.12,3.53-4.35,6.25-5.84,10.36-.97,2.67-1.37,6.97-2.49,9.29-1.38,2.87-7.26,5.61-5.45,10.44,1.44.52,3.94,1.12,5.36.52,2.46-1.04,3.3-7.69,6.61-8.48,5.05-1.21,14.17-1.66,19.39-1.28,1.15.09,6.94,1.16,7.54,1.67,1.49,1.25-1.72,6.83,1.73,7.84,3.62,1.06,6.05-1.51,6.37-4.86-2.76-5.65-5.43-11.67-8.91-16.9ZM125.85,63.72c-1.99.06-8.29,1.96-7.91-1.97.11-1.17,3.08-6.28,3.9-7.55.67-1.04,3.52-5.36,4.71-5.13,4.31,3.92,7.65,9.01,9.08,14.66-3.25.09-6.53-.11-9.78-.01Z"/>
  <path d="M30.7,3.09c2.87-1.38,4.56.78,5.03,3.45,1.06,6.07,0,12.28.02,18.38.02,4.7.67,9.97.77,14.69.1,4.62-3.11,5.86-6.85,3.53l.56-13.63c-.11-.12-.9.31-1.28.3-5-.18-10.45.86-15.48,1.25-1.39.11-2.77.51-4.24.29.3,3.45.15,6.83-.19,10.3-.79,1.76-5.14,1.94-6.35.65-1.68-1.8.48-8.68.65-11.12.47-6.62-.64-14.5-.4-21.38.09-2.65.55-5.55.57-8.26,1.68-1.55,4.66-2.48,5.92-.02l.57,20.04c.3,2.9,2.9,2.89,5.26,2.75,3.38-.21,7.61-1.28,11.1-1.79,1.12-.16,2.22.4,3.15-.53,1.37-1.38.29-2.48.35-3.7.14-2.99.34-5.91.37-8.84.02-1.33-.3-5.59.45-6.35Z"/>
  <path d="M85.15,88.76h6.45c.21,0,2.49-1.33,3.34-1.45,2.13-.3,4.01.9,6.25.74,2.73-.19,6.45-3.1,7.45,1.71.8,3.84-.56,4.67-3.83,5.2-7.29,1.2-13.49.37-20.58.38-2.22,0-6.23,1.56-6.79-2.01-.41-2.59,1.57-5.26,1.68-8.38.27-7.67-1.53-16.27-1.19-23.92.08-1.71.57-7.53,1.71-8.52,1.31-1.14,3.57-.05,5.17-.04.41,1.18,1.07,2.32,1.21,3.57.46,4.08-1.51,12.02-1.62,16.68-.12,5.28,1.22,10.78.75,16.03Z"/>
  <path d="M48.3,89.49c1.83-.03,4.12-1.82,5.91-.92.53.27.58,1.22.98,1.31.99.23,2.81-.65,3.98-.75,1.21-.1,2.29.28,3.25.23,3.21-.17,8.53-4.33,9.43,1.45.58,3.75-.73,4.37-3.89,4.9-7.3,1.2-13.49.37-20.58.38-2.22,0-6.23,1.56-6.79-2.01-.41-2.59,1.57-5.26,1.68-8.38.33-9.41-2.77-21.74-.34-30.72.49-1.82,1.83-2.91,3.72-2.01.79.38.89,1.25,1.35,1.59,1.33.97,1.98-.44,2.2,2.5.32,4.4-1.52,11.59-1.64,16.41-.12,5.28,1.22,10.78.75,16.02Z"/>
  <path d="M86.71,3.83c.66-.64,3.85-.96,4.81-.74s3.19,2.54,3.94,3.43c2.88,3.43,5.07,7.27,7.19,11.21l10.49-14.91,2.33-.85c5.61,5.13-.06,8.18-3.04,11.91-1.98,2.49-5.45,6.89-6.38,9.82-2.05,6.43-.22,13.5-1.34,20.01-2.41.23-5.76,1.04-5.89-2.26-.11-2.85.76-7.04.71-9.91-.07-3.84-1.36-7.86-1.55-11.7-1.3-1.78-3.15-2.98-4.72-4.48-1.13-1.08-2.98-2.55-3.83-3.54-.32-.37-2.9-4.45-3-4.73-.26-.8-.31-2.67.29-3.25Z"/>
</svg>