<?xml version="1.0" encoding="UTF-8"?>
<svg id="Layer_1" xmlns="http://www.w3.org/2000/svg" version="1.1" viewBox="0 0 44.45 49.09">
  <!-- Generator: Adobe Illustrator 29.5.1, SVG Export Plug-In . SVG Version: 2.1.0 Build 141)  -->
  <defs>
    <style>
      .st0 {
        fill: #fff;
      }
    </style>
  </defs>
  <path d="M31.76,11.47c-1.96-3.03-6.92-5.74-10.55-5.39-1.54.14-5.1.84-6.48,1.42-6.22,2.63-9.78,17.54-7.06,23.15.3.6,3.85,6.11,4.2,6.44,3.3,3.19,13.87,2.67,17.56.39,3.71-2.3,5.82-6.9,6.02-11.16.18-3.86-1.59-11.61-3.69-14.85ZM29.39,30.07c-.47,2.52-4.41,1.88-6.32,2.14-.94.13-1.95.69-2.78.77-.21.02-.44.03-.69.01-.08,0-.16-.01-.25-.02-.03,0-.07,0-.1,0-2.17-.26-4.77-1.86-6.14-3.5-.01-.02-.02-.04-.03-.05-.15-.17-.28-.34-.39-.51v-.12c-.32-.58-.54-1.22-.62-1.91l-.38-8.38c.39-1.97,2.66-3.43,5.08-4.19.73-.27,1.52-.44,2.36-.52.25-.03.49-.06.73-.07,1.23-.07,4.05.17,5.05.79.58.35,2.69,3.08,3.06,3.76,1.6,2.95,2.02,8.54,1.42,11.81Z"/>
  <path class="st0" d="M13.11,29.46c1.48,2.04,4.17,3.28,6.14,3.5-2.17-.26-4.77-1.86-6.14-3.5Z"/>
  <path d="M23.45,21v10.09c-.97-.16-4.87.67-5.33.02-.58-.83.12-8.53.15-10.11,1.81.02,3.38-.59,5.18,0Z"/>
  <path d="M19.56,19.58c-2.16-.51-1.52-4.44.55-4.81,1-.18,2.88.5,3.22,1.58.84,2.69-1.44,3.78-3.77,3.23Z"/>
</svg>