<?xml version="1.0" encoding="UTF-8"?>
<svg id="Layer_1" xmlns="http://www.w3.org/2000/svg" version="1.1" viewBox="0 0 44 44">
  <!-- Generator: Adobe Illustrator 29.5.1, SVG Export Plug-In . SVG Version: 2.1.0 Build 141)  -->
  <defs>
    <style>
      .st0 {
        fill: #fff;
      }
    </style>
  </defs>
  <path d="M35.73,7.54C33.2,3.64,26.81.14,22.14.6c-1.98.18-6.57,1.08-8.35,1.83C5.77,5.81,1.19,25.02,4.69,32.25c.39.77,4.96,7.87,5.41,8.3,4.25,4.11,17.87,3.44,22.62.5,4.78-2.96,7.5-8.89,7.76-14.38.23-4.97-2.05-14.96-4.75-19.13ZM32.68,31.5c-.61,3.25-5.68,2.42-8.14,2.76-1.21.17-2.51.89-3.58.99-.27.03-.57.04-.89.01-.1,0-.21-.01-.32-.03-.04,0-.09,0-.13-.01-2.8-.34-6.15-2.4-7.91-4.51-.01-.03-.03-.05-.04-.06-.19-.22-.36-.44-.5-.66v-.15c-.41-.75-.7-1.57-.8-2.46l-.49-10.8c.5-2.54,3.43-4.42,6.55-5.4.94-.35,1.96-.57,3.04-.67.32-.04.63-.08.94-.09,1.58-.09,5.22.22,6.51,1.02.75.45,3.47,3.97,3.94,4.84,2.06,3.8,2.6,11,1.83,15.22Z"/>
  <path class="st0" d="M11.7,30.72c1.91,2.63,5.37,4.23,7.91,4.51-2.8-.34-6.15-2.4-7.91-4.51Z"/>
  <path d="M25.02,19.82v13c-1.25-.21-6.27.86-6.87.03-.75-1.07.15-10.99.19-13.03,2.33.03,4.35-.76,6.67,0Z"/>
  <path d="M20.01,17.99c-2.78-.66-1.96-5.72.71-6.2,1.29-.23,3.71.64,4.15,2.04,1.08,3.47-1.86,4.87-4.86,4.16Z"/>
</svg>