<?xml version="1.0" encoding="UTF-8"?>
<svg id="Layer_1" xmlns="http://www.w3.org/2000/svg" version="1.1" viewBox="0 0 44 44">
  <!-- Generator: Adobe Illustrator 29.5.1, SVG Export Plug-In . SVG Version: 2.1.0 Build 141)  -->
  <defs>
    <style>
      .st0 {
        fill: #fff;
      }
    </style>
  </defs>
  <path class="st0" d="M40,14.43c-.6-3.18-1.64-4.89-3.99-7.04-2.94-2.68-9.1-5.81-12.99-6.61-2.34-.47-4.68.99-6.84,1.75-.88.3-1.84.14-2.69.51-.2.08-3.21,2.21-3.32,2.38-.45.7-.84,2.97-1.45,4.24-1.09,2.31-3.47,4.55-4.14,6.91-3.31,11.78.97,24.57,14.14,26.64,2.79.45,8.68-.81,11.43-1.77.88-.3.91-1.05,1.14-1.17.46-.26,1.33-.07,2.18-.5,7-3.55,7.82-18.71,6.54-25.34ZM31.34,34.1c-.12.17-.24.33-.37.47-2.69,3.1-9.08,2.47-12.26,2.04-1.79-.24-2.81-2.29-4.56-2.29h-.05c-.29-.14-2.4-4.06-2.56-4.6-.43-1.39-.91-7.41-.88-9.03.09-4.9,2.9-10.84,8.28-11.48,1.23-.14,5.12.04,6.19.5.51.24,1.17,1.34,1.81,1.76.84.55,2.98,1.26,3.44,1.72.17.17,1.42,2.47,1.59,2.86,2.29,5.47,2.77,12.95-.63,18.04ZM27.62,27.35l-2.26-1.39-2.01,1.58,1.42,1.6c-.88.04-2.35-.38-2.48.88.26,1.2,4.78,1.1,5.82.58l.91-4.09-1.39-.58v1.42ZM25.83,23.21c.24-2.48-2.46-3.93-4.72-3.26-2.19.64-3.65,4.01-2.21,5.98,2.59,1.56,6.62.62,6.92-2.72ZM19.8,19.16l2.85-.35-.35-3.93c1.58,1.84,3.56,1.84,1.6-.71-3.35-4.37-5.41-1.1-6.59,2.65l.88.55,1.62-1.79v3.57Z"/>
  <path d="M40,14.43c-.6-3.18-1.64-4.89-3.99-7.04-2.94-2.68-9.1-5.81-12.99-6.61-2.34-.47-4.68.99-6.84,1.75-.88.3-1.84.14-2.69.51-.2.08-3.21,2.21-3.32,2.38-.45.7-.84,2.97-1.45,4.24-1.09,2.31-3.47,4.55-4.14,6.91-3.31,11.78.97,24.57,14.14,26.64,2.79.45,8.68-.81,11.43-1.77.88-.3.91-1.05,1.14-1.17.46-.26,1.33-.07,2.18-.5,7-3.55,7.82-18.71,6.54-25.34ZM31.34,34.1c-.12.17-.24.33-.37.47-2.69,3.1-9.08,2.47-12.26,2.04-1.79-.24-2.81-2.29-4.56-2.29h-.05c-.29-.14-2.4-4.06-2.56-4.6-.43-1.39-.91-7.41-.88-9.03.09-4.9,2.9-10.84,8.28-11.48,1.23-.14,5.12.04,6.19.5.51.24,1.17,1.34,1.81,1.76.84.55,2.98,1.26,3.44,1.72.17.17,1.42,2.47,1.59,2.86,2.29,5.47,2.77,12.95-.63,18.04Z"/>
  <path d="M25.83,23.21c-.3,3.34-4.34,4.28-6.92,2.72-1.45-1.97.01-5.33,2.21-5.98,2.26-.67,4.95.78,4.72,3.26Z"/>
  <path d="M22.29,14.88l.35,3.93-2.85.35v-3.57l-1.62,1.79-.88-.55c1.18-3.76,3.24-7.03,6.59-2.65,1.96,2.55-.03,2.55-1.6.71Z"/>
  <path d="M29.02,26.51l-.91,4.09c-1.04.53-5.56.62-5.82-.58.13-1.26,1.6-.84,2.48-.88l-1.42-1.6,2.01-1.58,2.26,1.39v-1.42l1.39.58Z"/>
</svg>