<?xml version="1.0" encoding="UTF-8"?>
<svg id="Layer_1" xmlns="http://www.w3.org/2000/svg" version="1.1" viewBox="0 0 54.27 57.82">
  <!-- Generator: Adobe Illustrator 29.5.1, SVG Export Plug-In . SVG Version: 2.1.0 Build 141)  -->
  <defs>
    <style>
      .st0 {
        fill: #fff;
      }
    </style>
  </defs>
  <path class="st0" d="M43.63,42.01c.22-.25.13-5.79.07-6.6-.9-13.67-6.81-24.05-21.57-25.11-1.78-.13-5.33-.28-6.67.95-.88.8-2.82,5.27-1.74,6.38.8.93,3.08.44,4.3.58,3.63.43,9.74,2.16,12.51,4.59,3.51,3.09,5.93,11.56,6.13,16.14.06,1.38-.93,3.72.99,4.16,1.74.39,4.15-.93,5.99-1.09ZM12.4,22.04c-.87.25-3.13,3.8-3.14,4.69-.02,2.55,2.97,1.31,4.64,1.56,3.98.59,5.63,2.33,7.91,5.39s1.38,7.21,3.15,10.44c.4.21,5.4-.51,5.7-.82.27-.27.24-.47.28-.81.28-2.41.15-8.11-.48-10.41-1.68-6.19-7.04-8.92-13.01-9.79-1.13-.16-4.12-.53-5.07-.25ZM13.49,32.09c-.83.19-2.63,2.13-3.06,2.91-2.45,4.51,1.02,9.53,6.2,8.37,2.35-.53,3.92-6.05,3.38-8.16-.59-2.29-4.37-3.62-6.53-3.13Z"/>
  <path d="M43.63,42.01c-1.84.16-4.25,1.49-5.99,1.09-1.92-.44-.93-2.78-.99-4.16-.2-4.57-2.61-13.04-6.13-16.14-2.76-2.43-8.87-4.16-12.51-4.59-1.22-.15-3.5.35-4.3-.58-1.08-1.11.87-5.58,1.74-6.38,1.34-1.23,4.89-1.08,6.67-.95,14.76,1.05,20.67,11.44,21.57,25.11.05.81.15,6.35-.07,6.6Z"/>
  <path d="M12.4,22.04c.95-.28,3.94.09,5.07.25,5.96.87,11.32,3.6,13.01,9.79.63,2.3.76,8,.48,10.41-.04.33-.01.53-.28.81-.31.31-5.3,1.03-5.7.82-1.77-3.22-.83-7.34-3.15-10.44s-3.93-4.79-7.91-5.39c-1.68-.25-4.66.99-4.64-1.56,0-.9,2.27-4.44,3.14-4.69Z"/>
  <path d="M13.49,32.09c2.15-.49,5.94.84,6.53,3.13.54,2.11-1.03,7.63-3.38,8.16-5.18,1.16-8.64-3.86-6.2-8.37.43-.78,2.23-2.73,3.06-2.91Z"/>
</svg>