<?xml version="1.0" encoding="UTF-8"?>
<svg id="Layer_1" xmlns="http://www.w3.org/2000/svg" version="1.1" viewBox="0 0 44 44">
  <!-- Generator: Adobe Illustrator 29.5.1, SVG Export Plug-In . SVG Version: 2.1.0 Build 141)  -->
  <defs>
    <style>
      .st0 {
        fill: #fff;
      }
    </style>
  </defs>
  <path class="st0" d="M42.83,40.04c.27-.3.15-7.05.09-8.03C41.82,15.37,34.63,2.73,16.66,1.44c-2.17-.15-6.49-.35-8.12,1.15-1.07.98-3.44,6.42-2.12,7.77.97,1.14,3.75.53,5.24.71,4.42.53,11.86,2.63,15.22,5.59,4.28,3.77,7.22,14.08,7.46,19.64.07,1.67-1.13,4.53,1.21,5.06,2.11.48,5.05-1.13,7.29-1.33ZM4.82,15.73c-1.05.31-3.81,4.62-3.82,5.71-.02,3.11,3.61,1.6,5.65,1.9,4.85.72,6.85,2.84,9.63,6.56s1.68,8.78,3.83,12.71c.49.25,6.57-.62,6.94-1,.33-.33.29-.57.34-.98.35-2.93.18-9.88-.58-12.68-2.05-7.53-8.57-10.86-15.83-11.92-1.37-.2-5.01-.64-6.17-.31ZM6.14,27.96c-1.01.23-3.2,2.59-3.72,3.55-2.98,5.49,1.24,11.6,7.54,10.19,2.86-.64,4.78-7.36,4.12-9.93-.72-2.78-5.32-4.41-7.94-3.81Z"/>
  <path d="M42.83,40.04c-2.24.2-5.17,1.81-7.29,1.33-2.34-.53-1.14-3.39-1.21-5.06-.24-5.57-3.18-15.88-7.46-19.64-3.36-2.96-10.8-5.06-15.22-5.59-1.49-.18-4.26.43-5.24-.71-1.32-1.35,1.05-6.8,2.12-7.77,1.64-1.5,5.95-1.31,8.12-1.15,17.97,1.28,25.17,13.92,26.26,30.57.06.98.18,7.73-.09,8.03Z"/>
  <path d="M4.82,15.73c1.15-.34,4.8.11,6.17.31,7.26,1.06,13.78,4.39,15.83,11.92.76,2.8.93,9.74.58,12.68-.05.41-.02.65-.34.98-.38.38-6.45,1.25-6.94,1-2.15-3.93-1.01-8.93-3.83-12.71s-4.78-5.83-9.63-6.56c-2.04-.31-5.68,1.2-5.65-1.9,0-1.09,2.76-5.4,3.82-5.71Z"/>
  <path d="M6.14,27.96c2.62-.6,7.23,1.03,7.94,3.81.66,2.56-1.26,9.29-4.12,9.93-6.3,1.41-10.52-4.7-7.54-10.19.52-.95,2.71-3.32,3.72-3.55Z"/>
</svg>