<?xml version="1.0" encoding="UTF-8"?>
<svg id="Layer_1" xmlns="http://www.w3.org/2000/svg" version="1.1" viewBox="0 0 1124.64 589.6">
  <!-- Generator: Adobe Illustrator 29.5.1, SVG Export Plug-In . SVG Version: 2.1.0 Build 141)  -->
  <path d="M662.08,110.05c-3.28-8.29-13.64-19.18-20.3-25.52-12.91-12.28-28.15-24.01-45.26-29.47-12.16-3.88-24.01-3.34-36.59-3.76-6.58-.23-18.26-1.72-24.41-.45-3.74.77-10.9,5.16-15.13,6.68-11.26,4.07-24.37,4.35-34.52,10.76-8.28,5.24-15.43,16.73-22.72,23.64-2.76,2.61-5.63,4.25-8.39,7.15-9.2,9.65-16.54,39.83-18.86,53.42-.68,3.97-1.9,10.83-2.25,14.66-1.46,16.24-.43,44.67,6.63,59.42,1.13,2.37,3.29,4.37,4.42,6.49,3.68,6.92,6.09,14.45,10.81,20.83,6.56,8.87,35.33,29.49,45.81,33.27,10.06,3.63,28.36,5.03,39.01,4.13,13.61-1.16,27.03-.9,40.21-4.52,12.69-3.49,25.65-10.52,37.24-16.76,9.25-4.99,19.13-18.34,26.15-26.22,3.69-4.15,7.47-6.73,11.11-11.8,5.25-7.33,16.32-23.59,18.48-31.7,7.77-29.18-.6-62.93-11.44-90.25ZM566.63,129.96c.22-.54,6.35-8.13,7.24-9.13,3.47-3.89,5.5-5.59,10.79-6.12,6.96-.7,12.29-1.65,16.02,4.92.98,1.72,5.12,9.65,5.31,11.05,1.06,7.78-6.52,15.95-12.24,20.4-7.65,5.95-16.24,2.43-21.76-4.4-3.5-4.35-7.72-10.89-5.36-16.72ZM495.95,120.37c2.03-2.98,10.44-7.56,13.94-8.43,1.35-.33,2.77.1,4.11-.25,1.89-.49,1.86-2.42,5.08-1,1.4.61,6.62,6.02,7.35,7.38,1.82,3.42,2.22,14.13,1.58,17.99-.16,1-1.12,2.66-1.8,3.39-1.28,1.37-9.77,6.42-11.57,6.7-3.75.59-10.88.42-14.06-1.7-8.05-5.35-10.09-16.09-4.63-24.08ZM623.52,175.39c-3.03,19.63-9.05,27.93-22.93,41.43-1.28,1.26-3.03,1.83-4.37,3.27-2.8,3.05-4.31,7.91-6.64,11.36-6.6,9.82-19.73,16.9-31.31,18.87-1.83.31-3.86-.14-5.83.17-2.37.37-5.33,1.81-7.76,2.06-12.61,1.32-34.16-6.82-43.67-15.25-11.49-10.19-15.1-21.54-21.43-34.75-5.15-10.75-11.39-18.38-9.85-31.49.67-5.67,2.24-4.82,4.58-7.98,1.29-1.73.65-3.97,3.79-4.38,1.8-.23,10.38-.2,11.52.54,1.17.74,3.47,8.81,4.34,10.93.93,2.31,2.75,4.79,3.57,7.34,1.41,4.45,1.72,9.47,3.4,14.06,3.55,9.77,16.75,25.39,25.21,31.51,1.72,1.24,3.76,2.84,5.97,2.77,3.58-.11,11.04-3.48,15.44-4.25,7.46-1.29,10.19-.49,17.21-4.61,13.32-7.8,23.79-17.87,31.21-31.52,2.13-3.93,3.41-8.16,5.42-12.03.58-1.12,3.63-6.35,4.24-6.94,1.1-1.08,17.06-1.05,18.27,0,2.04,1.75-.09,7-.38,8.89Z"/>
  <path d="M737.33,458.9c4.75,4.32,3.04,12.54,3.45,18.1.6,8.16,2.29,16.95,2.72,25.1.55,10.38-.33,21.21-.02,31.65.16,5.39,2.33,13.38.53,18.48-2.43,6.87-18.33,5.72-20.03-.07-.52-1.78-.21-8.49-.13-10.82.37-11.29,1.39-22.45.57-33.8-.06-.81.42-1.58-.81-1.35-3.05,1.24-8.01,16.85-8.96,20.49-.52,2.01-1.12,4.07-1.54,6.09-.47,2.25.52,4.28-1.49,6.15-.95.88-2.49,1.14-3.53,1.93-3.37,2.55-3.54,9.01-5.68,12.87-.89,1.6-4.66,6.25-6.32,6.77-2.95.91-9.04-.43-10.96-2.89-4.96-6.35-5.54-14.57-7.88-21.97-.52-1.65-1.88-2.6-2.49-4.05-2.07-4.85-3.19-10.82-5.49-15.78-.69-1.49-6.15-12.02-8.11-10.16.14,4.4-2.83,8.01-3.27,12.28-.86,8.36-1.2,18.2-1.67,26.7-.21,3.82.83,12.87-.64,15.72-2.2,4.27-15.05,2.55-18.74.39.73-9.84.32-19.88.86-29.72.2-3.68,1.44-8.11,1.65-11.99,1-18.07-1.7-37.07,2.53-54.75.56-2.35,1.23-4.92,2.1-7.18.8-.93,7.76-3.12,9.26-3.29,10.48-1.19,8.73,2.44,12.93,9.44s8.99,11.69,12.36,19.28,5.95,22.76,11.59,28.23c1.69,1.64,4.4,2.99,6.22,4.6.76,0,3.73-4.6,4.19-5.52,3.43-6.97,6.73-16.76,9.58-24.23,2.68-7.01,4.93-20.25,11.64-23.82,3.37-1.79,12.53-5.68,15.6-2.88Z"/>
  <path d="M339.49,478.91l.54,23.46,11.73,1.14c7.23.04,31.78-3.34,36.81.23,1.88,1.33,4.29,9.78,3.56,12.26-.86,1.76-6.84,2.63-8.73,2.72-2.48.11-4.48-.58-6.51-.55-6.01.07-14.53,3.23-20.78,3.31-2.67.03-6.44-1.01-9.22-1.13-1.4-.06-7.89-.17-8.43.62,1.53,6.92-.81,13.84-.35,20.71.39.56,3.01.95,3.85,1.05,9.65,1.16,23.81,2.74,33.12.95,3.62-.7,8.67-3.07,12.17-3.14,2.63-.06,8.65.44,11.43.67,2.38.2,8.46.82,10.14,2.3.95.84,2.58,8.86,2.64,10.5.07,1.97-.66,7.36-2.17,8.62-1.77,1.48-12.87,1.03-16.01,1.44-6.07.79-12.47,3.34-18.68,4.23-14.58,2.09-29.41,1.61-43.71-1.41-8.51-1.8-11.29.39-12.12-10.25-1.27-16.25-1.56-32.28-2.17-48.56-.59-16.06-2.36-32.11-2.76-47.99-.11-4.61,4.83-2.51,7.37-2.45,4.21.1,8.44-.05,12.54-.04,18.81.05,37.15-3.43,56.73-2.68,3.66.14,9.13-.68,12.25,1.39,2.9,1.92,5.44,13.95,5.88,17.57,1.07,8.93-5.54,7.26-12.16,7.25-13.24-.03-27.05,2.37-40.18.36-5.6-.86-11.05-2.64-16.8-2.57Z"/>
  <path d="M616.45,477.68c-1.75,2.02-6.72-1.02-9.01-1.36-7.16-1.04-18.07,1.92-26.02,2.01s-15.42-.01-22.91,0c-3.19,0-6.44-.16-9.6.26-1.3.91-.04,6.42.21,8.05.37,2.38,2.73,15.35,4.16,15.99,1.91-.64,3.81.18,5.51.03,2.88-.27,6.03-1.97,8.98-1.98,1.43,0,2.76.65,4.33.61,4.83-.13,24.11-1.76,27.01.27,2.41,1.69,2.3,12.12,1.17,14.76-.45,1.04-.94,1.48-2.08,1.74-5.23.16-10.44.72-15.64,1.27-8.42.89-13.36-.12-21.33-.11-3.93,0-8.39,1.5-12.46,1.23-.43.11-.63.44-.87.77-.87,1.22-.81,11.49-.59,13.6.87,8.07,7.81,6.74,13.9,6.81,6.82.08,10.97-.51,17.59-1.5,5.16-.77,9.29,1.52,13.51,1.55,10.12.06,17.93-5.06,29.19-.87,1.69.63,2.22,1.73,2.59,3.41.55,2.49,2.08,14.18,1.65,16.12-.61,2.75-4.3,3.19-6.75,3.6-7.48,1.26-16.28.61-23.9,1.74-3.85.57-5.83,2.82-10.43,2.71-7.22-.17-16.03-2.7-23.42-2.79-3.55-.04-7.47,1.07-10.9,1.14-6.49.13-18.96-.96-21.43-8.07-3.26-9.42,1.04-26.6,1.49-36.95.24-5.58-.54-14.42-1.15-20.11-.8-7.45-4.25-19-4.34-25.71-.03-2.57.86-6.07,1.13-8.73.19-1.87-.06-8.69,1.08-9.83,2.43-2.42,10.07-.22,13.38-.21,11.03.05,22.12-2.24,33.3-2.25,10.01,0,24.54-.03,34.21,1.79,8.64,1.62,10.13,5.32,9.7,13.8-.06,1.11-.83,6.73-1.25,7.2Z"/>
  <path d="M638.09,323.59c17.02-2.15,24.54,5.06,37.59,12.86,2.27,1.36,5.33,2.1,7.77,3.69,4.44,2.89,9.59,8.24,8.1,14-2.04,7.86-10.19,10.84-17.6,10.66-5.95-.14-13.1-10.47-17.72-14.36-5.02-4.22-10.83-8.05-17.68-7.3-5.66.63-15.99,6.74-15.04,13.26.27,1.82,3.95,5.53,5.59,6.43,2.23,1.22,17.82,5.52,21.08,6.19s6.96.37,10.06.85c9.51,1.46,30.3,12.65,34.8,21.38,3.85,7.46.62,21.95-3.36,29.04-14.93,26.54-50.99,21.18-74.57,10.72-9-4-16.88-11.44-15.4-22.14.48-3.5,6.87-10.77,9.79-12.57,4.1-2.53,10.09-.89,12.82,2.96,1.27,1.79,1.27,3.63,2.21,5.42,6.38,12.03,18.77,16.67,32.12,15.32,10.98-1.11,17.55-14.45,8.47-22.64-7.01-6.32-15.31-4.78-24.04-6.51-10.58-2.09-13.5-4.69-21.84-10.34-10.38-7.04-16.85-10.57-18.44-24.65-2.06-18.26,19.64-30.28,35.26-32.26Z"/>
  <path d="M1093.19,412.4c-3.87-6.07-10.39-13.06-13.78-18.95-5.72-9.93,1.85-12.5,6.69-19.85,3.71-5.63,4.46-19.01,3.33-25.63-.3-1.77-1-3.54-2.21-4.88-1.42-1.57-11.2-8.01-13.37-8.99-3.52-1.6-8.43-2.71-12.27-3-22.09-1.67-41.94.42-63.82,2.71-6.63.7-8.75-2.02-9.53,6.84-.96,10.93-.17,22.82-.53,33.83-.08,2.39-1.05,5.18-1.14,7.59-.36,9.68-.3,25.3,2.04,34.55,1.31,5.13,2.85,6.96,7.93,8.43,4.68,1.35,8.36,1.14,12.99-.39.63-.21,1.17-.63,1.65-1.07,1.38-9.27.3-18.82-1.06-28.07,1.32-.43,2.6-1.02,4.02-1.16,5.69-.56,11.48.12,16.9.05,2.11-.03,4.34-1.05,6.54-1.16,9.55-.46,18.68-1.62,24.51,7.16,4.99,7.52,9.29,15.84,14.28,23.36,2.11,3.2,6.42,9.85,9.01,12.27,3.78,3.52,8.02.3,10.58-2.94,6.11-7.71,1.64-13.79-2.76-20.7ZM1066.99,370.86c-4.56,6.25-10.29,5.68-17.38,6.07-4.5.25-9.17.37-13.64.55-8.78.34-17.64.26-26.42.46-1.63-7.48-2.02-15.2-2.24-22.85,5.53-.33,11.09-.34,16.63-.55,11.13-.43,24.92-.79,35.95,1.15,9.28,1.64,13.25,6.76,7.1,15.17Z"/>
  <path d="M880.84,557.83c-10.78-26.94-24.61-51.83-39.82-76.36-5.48-8.83-14.33-26.59-27-22.31-16.62,5.6-20.38,19.92-27.89,33.21-2.58,4.58-6.68,9.11-9.27,13.64-4.68,8.19-6.75,17.93-10.36,26.72-3.05,7.43-7.86,14.49-10.72,21.46-1.05,2.55-1.42,5.31-2.48,7.85,2.16,5.82,6.55,10.54,13.34,9.57,3.48-.51,9.92-8.5,11.99-11.47,2.33-3.36,3.96-6.72,4.78-10.77,1.33-1.18,19.21-.52,22.56-.62,15.6-.45,23.98-1.98,39.49,1.92,1.84.46,4.44.23,6.16.93,8.26,3.32.9,24.67,16.77,19.21,2.06-.71,12.92-5.68,13.89-6.84,2.03-2.46-.53-3.88-1.44-6.14ZM840.89,528.04c-.31.43-5.01,1.01-6.01,1.07-12.27.82-25.35.09-37.68.5-2.33.08-4.84,1.04-7.34.57-.67-.66,3.31-6.11,3.91-7.26,5.19-10.02,11.43-26.15,17.68-34.69,3.58-4.89,4.68-4.56,9.45-.82,6.35,4.97,6.17,11.45,9.75,17.52,1.16,1.97,3.72,4.08,5.25,6.21,3.72,5.15,5.79,10.4,4.99,16.9Z"/>
  <path d="M547.82,373.78c-1.73,2.21.99,2.98,2.03,4.5,3.2,4.66,3.83,10.42,6.43,14.84,1.09,1.84,3.01,2.92,4.17,4.56s1.66,3.81,2.8,5.38c2.93,4.07,8.55,8.58,12.26,11.74,1.77,1.51,3.09,4.31,5.16,5.75,3.12,2.17,8.55,2.23,8.52,7.37,0,1.5-.2,1.72-1.12,2.74-2,2.22-12.87,4.42-16.12,4.61-13.65.81-11.25-5.06-15.62-14.92-4.13-9.34-11.85-18.16-18.24-25.94-.93-1.13-6.44-8.05-7.04-8.1-7.02,3.28-11.93,9.53-18,14.05-5.65,4.2-12.08,4.54-11.12,13.31.87,7.97,8.23,17.38-4.67,18.35-4.07.31-10.65-.37-14.74-1.13-.57-.11-1.06-.28-1.43-.75-2.15-11.42-1.9-23.36-1.6-34.99.11-4.26,1.03-9.31,1.14-13.59.41-16.21-.89-32.39-.6-48.6.35-3.93,6.82-2.15,10.05-2.5s9.08-4.23,10.85-.35c.38.84,1.38,6.06,1.49,7.24.68,7.68-.5,15.32-1.08,22.91-.45,5.93-.45,11.82-1.64,17.72,11.04-1.41,16.47-10.09,23.99-16.64,7.85-6.84,16.82-12.59,23.16-21.02,3.85-1.78,10.44-10.84,13.53-12.11,4.12-1.69,7,2.06,10.65,3.25,2.49.81,9.07,1.2,10.48,2.07,1.99,1.22,3.19,9.43,2.43,11.69-1.66,4.95-10.46,12.4-14.71,15.83-6.67,5.38-13.68,9.01-21.38,12.7Z"/>
  <path d="M450.46,432.96c-4.39,1.1-13.3,2.75-16.78-.69-1.48-1.46-5.36-9.47-6.27-11.73-1.48-3.67-2.13-7.99-3.8-11.48-5.57-11.68-16.46-23.25-24.52-33.3-3.41-4.25-5.42-9.78-10.96-11.94-.89.5-.66,1.15-.82,1.89-3.3,15.43-.25,32.14-1.06,48.03-.16,3.07-.72,10.42-1.67,13.06-.45,1.24-1.67,2.75-3,3-1.66.31-11.79.22-12.68-.66-.39-.52-.54-1.17-.62-1.81-.55-4.05.04-8.19-.03-11.95-.46-24.73-1.22-49.43-1.64-74.23-.06-3.69-2.7-14.16,2.47-14.94,3.46-.53,10.7-.92,14.09-.52,7.57.89,9.94,10.58,13.75,15.71,1.68,2.26,4.42,4.13,6.21,6.33,3.21,3.94,6.05,9.07,9.55,12.82s8.09,7.31,11.75,11.16c1.7,1.79,5.13,7.89,8.06,6.18,4.17-5.34.99-12.08.63-18.14-.56-9.2.27-19.09.04-28.41-.06-2.65-2-7.23.86-8.91,3.35-1.96,13.77-1.88,16.28,1.58,1.63,2.24.53,8.07.89,11.11.42,3.53,2.33,7.8,2.66,11.52,2.08,23.1-.7,48.38-2.17,71.46-.32,4.94.95,10.32-1.23,14.86Z"/>
  <path d="M345.22,418.73c-7.45-14.14-12.73-28.9-20.65-42.63-4.53-7.85-8.03-15.83-12.25-23.75-1.97-3.69-5.15-7.34-7.37-11.17-1.87-3.2-1.93-5.7-4.97-8.67-4.53-4.41-9.46-3.66-15.34-2.36-4.65,1.03-5.04,2.44-7.52,6.11-8.38,12.43-16.08,25.45-22.98,38.66-5.97,11.45-12.44,20.11-17.24,32.4-2.47,6.34-7.15,18.2-8.18,24.54-.19,1.17-.64,3.97.76,4.43,4.35-.85,11.86,2.72,15.64.52.56-.33,5.98-9.39,7.02-10.98,1.13-1.73,1-3.72,3.22-4.96,3.08-1.74,10.55-.61,14.43-.85,15.21-.95,30.45-4.13,45.82-3.32,2.26.12,10.33.81,11.56,2.35,1.57,1.96,1.51,11.59,2.63,14.55,1.68,4.46,8.48,4.22,12.45,3.8,1.05-.11,8.45-1.77,8.84-2.08,3.68-2.92-4.35-13.71-5.87-16.59ZM312.83,396.57c-4.68-.18-10.02-1.71-14.71-1.7-4.53,0-9.73,1.42-14.15,1.7-5.71.35-11.47-1.58-17.2-.03,2.59-6.52,4.61-12.67,8.27-18.72,3.18-5.25,7.42-11.87,10.92-16.9.88-1.27,3.8-5.86,5.09-5.86.74-.06.92.44,1.28.92,1.54,2.04,3.58,4.89,5,7.01,3.76,5.61,7.49,11.59,11.13,17.23,3.26,5.03,6.33,10.15,9.02,15.51-.06,1.09-3.74.87-4.65.84Z"/>
  <path d="M964.51,353.07c-3.54-5.39-9.52-9.37-13.48-13.78-1-1.11-1.32-2.58-2.42-3.59-5.91-5.43-21.83-8.26-29.61-7.2-2.24.31-8.68,3.38-11.32,4.51-17.1,7.32-22.73,14.6-27.97,32.57-5.15,17.7-6.83,34.32,1.14,51.52,5.75,12.39,11.44,16.46,24.4,20.32,18.45,5.5,22.49-.38,38.83-3.65,2.01-.41,3.9.12,6.05-.5,15.6-4.51,22.92-26.81,24.08-41.37.84-10.48-3.9-30.01-9.7-38.83ZM952.28,405.97c-3.22,8.14-22.35,16.59-30.7,15.67-5.05-.56-17.32-8.84-20.13-13.14-8.37-12.83-3.3-43.1,8.4-53.14,5.47-4.7,9.07-5.04,16.03-4.02,7.3,1.06,8.28,3.15,13.79,6.93,1.03.71,2.83.93,3.32,1.33.39.32,5.53,7.72,5.71,8.19,3.52,8.98,7.1,29.28,3.58,38.18Z"/>
  <path d="M223.13,512.73c2.6-.53,5.99.56,8.32.41,6.77-.41,13.63-2.15,20.38-3.08,7.11-.98,15.06.5,19.72-6.21-2.17-7.31-1.72-14.55-2.03-21.97-.1-2.37-.89-5.28-.91-7.71s.63-10.06,1.25-12.09c.56-1.84,3.5-4.01,5.24-4.58,4.45-1.47,11.52,3.01,13.1,7.33,2.58,7.05,2.24,14.66,3.12,21.97,1.82,15.16,3.87,30.01,3.86,45.27,0,6.5-.89,13.31-.94,19.73-.03,4.36,2.31,14.82-2.38,16.82-4.39,1.87-18.23,3.65-18.02-3.79.18-6.23,1.28-11.49,1.12-18.03-.1-4.27.05-10.03-.58-14.14-.9-5.85-11.18-1.42-15.02-.91-5.64.76-11.3.17-16.78.67-5.9.54-12.23,3.04-18.33,3.22.69,4.12.78,7.55.53,11.71-.19,3.14-1.26,13.02-2.48,15.52-.49.99-1.89,1.73-2.93,1.98-3.4.8-12.78,1.61-14.21-2.23-2-5.39-.57-11.53-.53-16.87.21-26.79.58-54.1.02-80.75-.05-2.3-2.71-8.65.47-9.83,1.63-.61,8.78-1.7,10.57-1.68,3.72.04,5.23,1.37,6.63,4.71,2.17,5.2,2.44,25.34,2.49,31.87.06,7.6-1.66,15.08-1.66,22.66Z"/>
  <path d="M192.58,402.55c-4.64-.17-9.26,1.02-13.91.55-2.51-.26-5.46-1.68-8.18-1.68-5.83,0-12.26,1.7-18,2.22-4.22.38-8.6-.28-12.82.55-1.04.98,1.51,24.38-1.04,28.55-.98,1.61-12.62,1.47-14.48-.75-1.62-1.93-.65-12.29-.82-15.55-1.2-23.39-2.01-46.89-2.18-70.36-.04-4.82-1.04-8.83.11-14.03.76-3.43,1.37-4.46,4.63-5.73,4.85-1.89,12.07-2.52,14.75,3,1.56,3.22.03,5.26.1,8.03.26,10.44,1.44,21.19,1.13,31.69-.08,2.86-1.11,6.34-1.14,9.23-.03,2.41.65,4.47.58,6.84,3.27-.62,7.13.61,10.09.59,10.13-.09,19.87-3.45,29.58-5.37,1.5-.3,8.02-.32,8.64-1.18.42-5.91.25-11.86.26-17.79.01-5.46.21-10.9.32-16.43.07-3.48-1.5-14.94.99-17.13.39-.34,6.19-3.4,6.83-3.54,7.65-1.63,8.06,1.06,8.75,7.68,1.63,15.65,2.31,28.75,2.21,44.74,0,1.29-.58,2.48-.59,3.77-.13,17.53,1.84,33.95,4.36,51.22-.55,4.51-2.45,2.95-5.04,3.74-1.22.37-2.11,1.27-3.43,1.48-2.01.32-9.92.32-10.88-1.6l-.81-32.73Z"/>
  <path d="M808.04,375.28c3.11.45,5.99-.92,8.98-1.11,3.88-.25,8.2.4,12.01.01,3.22-.32,6.33-1.92,9.8-2.2,4.89-.39,14.32-.48,19.12.02s2.56,4.29,2.45,7.37c-.27,7.5,2.02,11.03-7.39,10.65-5.74-.23-12.64-1.8-18.52-1.7-2.84.05-6.32,1.76-9.36,2.18-4.84.66-10.91.14-15.74.59-.82.08-1.64.26-2.37.62l1.32,38.14c-3.81,4.61-12.97,6.54-17.92,2.72-3.12-2.41-1.5-9.7-1.46-12.82.17-11.31-2.24-19.43-2.77-30-.83-16.61,1.43-33.81.59-50.23-.22-4.4-3.9-11.52,3.5-11.18,5.35.25,8.33,3.12,15.32,2.77,8.79-.44,19.78-.67,28.33-1.67,7.25-.84,11.69-2.56,19.67-2.2,4.57.21,15.04.7,19.02,1.71,3.01.76,3.35,2.26,3.62,5.11.32,3.47.17,12.22-2.47,14.48-5.05,4.32-9.99,1.1-15.27,1.04-7.85-.09-16.53,1.26-24.57.61s-13.42-2.86-22.28-.5c-4.41,1.17-4.41,3.01-4.72,7.28-.44,6.12.95,12.2,1.11,18.3Z"/>
  <path d="M958.76,460.55c1.61,1.6,2.17,4.95,2.36,7.19,1.62,19.51.96,38.38.53,57.79-.15,6.82-.04,13.7.26,20.51,1.32,1.9,21-.99,24.55-1.15,6.06-.28,12.03.35,18,.59,6.46.27,13.88-2.73,14.5,5.68.18,2.44-.27,8.93-.62,11.43-.47,3.37-2.8,3.89-5.81,4.55-6.27,1.38-13.12.3-19.49.69-15.6.96-34.83,8.02-49.66,1.1-5.97-2.79-6.59-6.67-6.25-12.83.43-7.85,4.59-13.44,4.38-20.76-.63-21.91-4.14-43.44-3.17-65.3,1.05-1.52,3.41-10.94,4.05-11.35,3.22-2.05,13.58-.9,16.36,1.87Z"/>
  <path d="M151.67,475.63c-.53,5.71-.34,11.45-.55,17.18-.7,18.85-.15,37.99.55,56.73.16,4.39,1.78,8.29.28,12.83-1.78,5.4-11.33,7.76-14.71,2.69-3.68-5.51-1.41-18.01-1.59-24.7-.49-17.57-1.78-34.42-1.93-51.92-.03-3.7-.76-7.45-.59-11.18-1.97-.35-3.85.51-5.71.57-2.9.1-6.25-.54-8.75-.45-5.47.19-8.93,2.23-15.15.85-2.77-.61-8.8-4.53-9.53-7.37s1.35-10.68,4.08-12.01,7.1-.38,10.23-.68c2.32-.22,4.8-1.32,7.16-1.57,15-1.58,29.43,1.23,44.14.5,7.93-.39,23.76-3.98,30.63-.13,4.39,2.46,5.55,12.98,1.45,15.31l-20.1,4.99-19.92-1.64Z"/>
  <path d="M106.79,344.57c-2.51,2.07-6.12-.07-8.33-.36-6.82-.87-16.22,1.88-23.96,1.6-1.42-.05-3.76-1.35-4.92,0-.54.63-1.25,5.15-1.35,6.28-2.04,24.71.67,49.6-2.18,74.18-.2,1.74.29,3.81-.02,5.43-.73,3.84-9.76,1.77-12.57,1.69-1.46-1.05-1.22-18.91-1.08-21.88.16-3.49,1.47-6.75,1.12-10.34-.29-2.92-2.21-6.05-2.91-9.08-1.17-5.06-1.59-16.83-.86-21.96.29-2.07,2.03-3.59,2.12-4.98.07-1.01-.55-2.4-.56-3.77-.01-4.93.27-9.77.49-14.68l-.43-.65c-2.08-.75-4.16.29-6.28.33-7.77.14-23.54-.24-30.3-3.57-1.43-.71-2.05-.97-2.22-2.72-.15-1.54.67-6.57,1.45-7.88,1.16-1.95,6.36-2.62,8.66-2.79,18.75-1.42,39.14,1.4,57.86.59,6.25-.27,22.15-2.94,27.18.04,3.65,2.16,1.52,12.5-.91,14.5Z"/>
  <path d="M703.68,189.55c1.44,7.6,16.38,17.08,23.7,17.75,3.85.35,11.48.36,15.31,0,2.3-.22,5.49-2.91,6.31,1.35l-.62,1.63c-5.48,4.24-10.95,10.13-13.24,16.76-3.28,9.52-.42,20.86-1.48,30.71-.23,2.14-.66,2.92-2.98,3-2.91-.86-1.99-4-3.56-6.28-.86-1.25-4.7-4.56-6.04-5.42-3.35-2.13-23.61-7.41-28.1-7.9-3.43-.38-14.91.73-16.82-.63-1.22-.86-1.23-2.96-.36-4.1.73-.96,2.77-.96,3.83-1.63,12.83-8.13,18.58-22.1,20.18-36.55.55-5.02-1.71-13.4-.39-17.85.23-.78,1.01-1.43,1.83-1.5.7-.29,2.43.99,2.43,1.39,0,2.54-.42,7.07,0,9.27Z"/>
  <path d="M898.54,568.77c-2.6-2.8-1.52-18.05-1.78-22.49-1.6-26.75-1.19-48.13.05-74.73.11-2.25-1.74-3.13.76-5.19,1.4-1.16,6.85-2.46,8.79-2.66,13.56-1.4,8.73,13.81,9.49,22.57,2.26,25.92,3.63,46.22,1.09,72.56-.27,2.79.94,6.56-2.33,8.03-1.1.5-7.81,2.63-9.1,2.9-1.87.4-5.62.48-6.98-.99Z"/>
  <path d="M346.35,166.96c1.23,11.12,3.16,21.56,8.68,31.4,5.35,9.53,17.18,12.87,27.66,11.65,2.45-.28,5.02-2.12,7.93-.87l.42,2.95c-7.12,2.39-14.66,7.19-20.35,12.1-6.34,5.48-8.56,11.94-10.08,19.92-1.7,8.98-.13,17.13-1.11,25.62-.47,4.1-4.24,3.95-5.22.84-1.17-3.73-1.6-9.09-2.69-13.13-1.77-6.52-3.86-13.87-5.9-20.29-3.84-12.09-10.12-14.63-21.51-18.85-3.64-1.35-8.46-1.9-11.65-3.62-1.22-.66-2.13-2.23-3.75-2.77,2.31-4.04,6.25-1.65,9.63-1.57s7.68-.25,10.51-2.28c3.32-2.38,5.6-9.07,7.23-12.95,2.92-6.94,6.28-15.78,7.51-23.04.23-1.37-.18-2.87.1-4.26.35-1.08,1.65-1.05,2.6-.84Z"/>
  <path d="M1046.66,456.66c3.79-.28,5.95,5.15,6.6,8.38,1.44,7.1-1.27,13.3-1.06,20.16.28,9.1,3.48,18.12,2.77,27.27-.48,6.28-3.75,11.55-6.56,16.89-2.7,1.39-14.13-3.39-14.61-7.22l.38-58.83c2.53-4.24,7.74-6.31,12.48-6.66Z"/>
  <path d="M719.88,72.65c6.29-1.87,1.5,8.76,1.23,11.06-.62,5.34.02,11.02,6,12.58,1.8.47,8.05-1.21,6.88,3-.88,3.18-11.99,6.18-15.25,7.7-7.86,3.66-10.72,6.13-14.25,14.11-1.1,2.49-1.22,7.07-4.08,7.94-7.3,2.23.14-13.6.48-16.45.25-2.12.36-8.29-.07-10.21-1.23-5.44-16.37-6.79-13.03-14.35,1.75-3.97,6.98.19,10.16.36,1.22.06,9.18-.58,10.05-.87,5.75-1.95,9.23-14.09,11.87-14.88Z"/>
  <path d="M388.8,82.77c2.43-2.3-.04-15.48.1-19.22.13-3.46,2.68-2.92,3.59-.81.51,1.19.14,2.54.54,3.83.8,2.58,4.91,8.21,7.11,9.8,3.52,2.53,7.42,2.9,11.36,1,1.52-.73,5.65-5.47,7.21-3.21,1.75,2.53-1.67,3.66-2.78,4.92-3.78,4.28-9.38,11.7-8.86,17.62.19,2.21,7.87,13.53,1.81,12.97-1.53-.14-4.45-5.53-5.03-7.02-2.34-5.94.27-10.52-8.93-8.59-3.26.69-14.55,9.01-12.37.17.24-.98,3.83-9.69,4.31-10.42.69-1.05,1.56-.69,1.94-1.05Z"/>
  <path d="M1042.27,542.87c4.11-.12,12.14,4.26,13.01,8.57.76,3.79-4.74,10.61-8.37,11.35-4.69.95-9.58.45-12.68-3.44-5.35-6.7-.29-16.25,8.04-16.48Z"/>
  <path d="M466.81,27.96c3.76,4.07-2.39,16.01-5.58,19.51-2.26,2.48-3.46,4.04-7.11,3.85-8.96-.48-3.49-16.8.05-21.27,2.51-3.17,9.92-5.03,12.64-2.08Z"/>
  <path d="M357.71,26.81c3.46-.62,7.82,4.88,8.3,7.85.58,3.62.5,14.43-1.85,17.19-2.53,2.97-4.24.91-6.65.68-1.7-.17-3.24,1.46-4.81-.75-1.77-2.48.45-4.63.76-6.82.59-4.18-.18-13.76,1.95-16.59.51-.68,1.47-1.41,2.3-1.56Z"/>
  <path d="M356.02,113.63c.82-.06,2.58.39,3.23.89,1.39,3.05,4.36,4.46,4.61,7.95.49,6.59-2.98,3.91-6.82,4.64-1.62.31-5.15,4.62-7.41.84-.71-1.2-.83-8.8-.4-10.28.36-1.25,5.54-3.95,6.77-4.03Z"/>
  <path d="M743.12,148.54c2.28-1.92,6.02-1.62,6.39,1.69-1.43,3.98-1.98,8.26-3.73,12.14-5.14,11.39-9.87-.83-6.59-8.77.33-.8,3.3-4.52,3.94-5.06Z"/>
  <path d="M805.13,198.01c-.46.65-2.19,2.22-2.77,2.46-.89.37-1.75-.24-2.17,0-.54.3-.66,1.71-2.12,2.21-3.62,1.24-6.17-.03-6.6-3.84-.36-3.17-.51-8.69,3.26-9.86,5.87-1.83,8.49,3.59,8.44,8.52l1.96.52Z"/>
  <path d="M783.72,252.4c-3.05,3.54-9.32-5.47-4.22-7.75s5.27,6.53,4.22,7.75Z"/>
</svg>