<?xml version="1.0" encoding="UTF-8"?>
<svg id="Layer_1" data-name="Layer 1" xmlns="http://www.w3.org/2000/svg" viewBox="0 0 91.4 32.75">
  <defs>
    <style>
      .cls-1 {
        fill: #fff;
      }
    </style>
  </defs>
  <path class="cls-1" d="M89.25,17.76c4.03-4.6,2.4-14.25-4.98-15.08-3.85-.43-11.26-.6-15.26-.59-1.23,0-9.25.77-9.52,1.16l.51,28.09,6.29.3c1.25-2.36-1.27-8.07.23-9.09,6.41-1.56,17.99.63,22.73-4.79ZM66.56,9.77c1.57-.41,3.29.58,4.65.57,2.92-.02,18.05-2.74,13.81,4.56-2.35,4.05-14.34,1.58-18.47,1.97v-7.1ZM41.76,8.69c-3.15-2.71-7.5,6.84-6.83,9.44l1.23.51c.54.23,1.17,0,1.43-.53l1.11-3.89c.22,1.19-.19,8.98.83,9.67.03.02.06.03.1.04,3.25.62.52-8.4,2.7-9.47,1.18,2.29,2.95,5.4,3.36,3.91.04-.16.07-.38.08-.66.07-2.09-2.46-7.69-4.01-9.02ZM41.76,8.69c-3.15-2.71-7.5,6.84-6.83,9.44l1.23.51c.54.23,1.17,0,1.43-.53l1.11-3.89c.22,1.19-.19,8.98.83,9.67.03.02.06.03.1.04,3.25.62.52-8.4,2.7-9.47,1.18,2.29,2.95,5.4,3.36,3.91.04-.16.07-.38.08-.66.07-2.09-2.46-7.69-4.01-9.02ZM41.76,8.69c-3.15-2.71-7.5,6.84-6.83,9.44l1.23.51c.54.23,1.17,0,1.43-.53l1.11-3.89c.22,1.19-.19,8.98.83,9.67.03.02.06.03.1.04,3.25.62.52-8.4,2.7-9.47,1.18,2.29,2.95,5.4,3.36,3.91.04-.16.07-.38.08-.66.07-2.09-2.46-7.69-4.01-9.02ZM41.76,8.69c-3.15-2.71-7.5,6.84-6.83,9.44l1.23.51c.54.23,1.17,0,1.43-.53l1.11-3.89c.22,1.19-.19,8.98.83,9.67.03.02.06.03.1.04,3.25.62.52-8.4,2.7-9.47,1.18,2.29,2.95,5.4,3.36,3.91.04-.16.07-.38.08-.66.07-2.09-2.46-7.69-4.01-9.02ZM41.76,8.69c-3.15-2.71-7.5,6.84-6.83,9.44l1.23.51c.54.23,1.17,0,1.43-.53l1.11-3.89c.22,1.19-.19,8.98.83,9.67.03.02.06.03.1.04,3.25.62.52-8.4,2.7-9.47,1.18,2.29,2.95,5.4,3.36,3.91.04-.16.07-.38.08-.66.07-2.09-2.46-7.69-4.01-9.02ZM41.76,8.69c-3.15-2.71-7.5,6.84-6.83,9.44l1.23.51c.54.23,1.17,0,1.43-.53l1.11-3.89c.22,1.19-.19,8.98.83,9.67.03.02.06.03.1.04,3.25.62.52-8.4,2.7-9.47,1.18,2.29,2.95,5.4,3.36,3.91.04-.16.07-.38.08-.66.07-2.09-2.46-7.69-4.01-9.02ZM54.87,11.38C53.72,5.37,46.46-.77,40.26.08c-5.28.72-9.73,3.02-12.3,7.88-4.48,8.49-.65,24.49,10.56,24.74,2.06.04,11.37-2.78,12.74-4.15,2.96-2.98,4.38-13.11,3.61-17.17ZM47.88,23.8c-.64.51-7.65,1.81-8.84,1.83-9.34.16-7.74-13.95-3-18.86,5.82-1.16,8.98-1.79,11.47,4.34,1.26,3.13,3.34,10.31.37,12.69ZM41.76,8.69c-3.15-2.71-7.5,6.84-6.83,9.44l1.23.51c.54.23,1.17,0,1.43-.53l1.11-3.89c.22,1.19-.19,8.98.83,9.67.03.02.06.03.1.04,3.25.62.52-8.4,2.7-9.47,1.18,2.29,2.95,5.4,3.36,3.91.04-.16.07-.38.08-.66.07-2.09-2.46-7.69-4.01-9.02ZM41.76,8.69c-3.15-2.71-7.5,6.84-6.83,9.44l1.23.51c.54.23,1.17,0,1.43-.53l1.11-3.89c.22,1.19-.19,8.98.83,9.67.03.02.06.03.1.04,3.25.62.52-8.4,2.7-9.47,1.18,2.29,2.95,5.4,3.36,3.91.04-.16.07-.38.08-.66.07-2.09-2.46-7.69-4.01-9.02ZM41.76,8.69c-3.15-2.71-7.5,6.84-6.83,9.44l1.23.51c.54.23,1.17,0,1.43-.53l1.11-3.89c.22,1.19-.19,8.98.83,9.67.03.02.06.03.1.04,3.25.62.52-8.4,2.7-9.47,1.18,2.29,2.95,5.4,3.36,3.91.04-.16.07-.38.08-.66.07-2.09-2.46-7.69-4.01-9.02ZM41.76,8.69c-3.15-2.71-7.5,6.84-6.83,9.44l1.23.51c.54.23,1.17,0,1.43-.53l1.11-3.89c.22,1.19-.19,8.98.83,9.67.03.02.06.03.1.04,3.25.62.52-8.4,2.7-9.47,1.18,2.29,2.95,5.4,3.36,3.91.04-.16.07-.38.08-.66.07-2.09-2.46-7.69-4.01-9.02ZM41.76,8.69c-3.15-2.71-7.5,6.84-6.83,9.44l1.23.51c.54.23,1.17,0,1.43-.53l1.11-3.89c.22,1.19-.19,8.98.83,9.67.03.02.06.03.1.04,3.25.62.52-8.4,2.7-9.47,1.18,2.29,2.95,5.4,3.36,3.91.04-.16.07-.38.08-.66.07-2.09-2.46-7.69-4.01-9.02Z"/>
  <path d="M89.25,17.76c4.03-4.6,2.4-14.25-4.98-15.08-3.85-.43-11.26-.6-15.26-.59-1.23,0-9.25.77-9.52,1.16l.51,28.09,6.29.3c1.25-2.36-1.27-8.07.23-9.09,6.41-1.56,17.99.63,22.73-4.79ZM66.56,9.77c1.57-.41,3.29.58,4.65.57,2.92-.02,18.05-2.74,13.81,4.56-2.35,4.05-14.34,1.58-18.47,1.97v-7.1Z"/>
  <path d="M54.87,11.38C53.72,5.37,46.46-.77,40.26.08c-5.28.72-9.73,3.02-12.3,7.88-4.48,8.49-.65,24.49,10.56,24.74,2.06.04,11.37-2.78,12.74-4.15,2.96-2.98,4.38-13.11,3.61-17.17ZM47.88,23.8c-.64.51-7.65,1.81-8.84,1.83-9.34.16-7.74-13.95-3-18.86,5.82-1.16,8.98-1.79,11.47,4.34,1.26,3.13,3.34,10.31.37,12.69Z"/>
  <path d="M26.7,6.42c-3.79-.05-7.47.14-11.11,1.12-.04.38-.07.77-.09,1.16-.42,6.99,1.18,15.89.14,22.61-.16,1.04-1.92,1.66-3.29,1.37-.85-.52-.72-1.09-.84-1.9-1.07-7.41-.86-15.68-1.08-23.19l-8.87.47C-.08,7.63-.32,5.14.35,3.77c1.26-2.59,7.08-1.07,9.21-1.14,4.17-.13,10.91-1.38,14.76-1.06,3.26.26,3.65,2.05,2.38,4.85Z"/>
  <path d="M45.77,17.71c-.01.28-.04.5-.08.66-.41,1.49-2.18-1.62-3.36-3.91-2.18,1.07.55,10.09-2.7,9.47-.04-.01-.07-.02-.1-.04-1.02-.69-.61-8.48-.83-9.67l-1.11,3.89c-.26.53-.89.76-1.43.53l-1.23-.51c-.67-2.6,3.68-12.15,6.83-9.44,1.55,1.33,4.08,6.93,4.01,9.02Z"/>
</svg>