<?xml version="1.0" encoding="UTF-8"?>
<svg id="Layer_1" xmlns="http://www.w3.org/2000/svg" version="1.1" viewBox="0 0 144 60">
  <!-- Generator: Adobe Illustrator 29.5.1, SVG Export Plug-In . SVG Version: 2.1.0 Build 141)  -->
  <defs>
    <style>
      .st0 {
        fill: #fff;
      }
    </style>
  </defs>
  <path class="st0" d="M140.14,32.17c6.31-7.2,3.76-22.3-7.79-23.59-6.02-.67-17.62-.94-23.88-.92-1.92,0-14.47,1.2-14.9,1.81l.8,43.95,9.84.47c1.96-3.69-1.99-12.63.36-14.22,10.03-2.44,28.15.99,35.56-7.49ZM104.64,19.66c2.46-.64,5.15.91,7.28.89,4.57-.03,28.24-4.29,21.61,7.13-3.68,6.34-22.44,2.47-28.9,3.08l.02-11.11ZM65.84,17.97c-4.93-4.24-11.73,10.7-10.69,14.77l1.92.8c.84.36,1.83,0,2.24-.83l1.74-6.09c.34,1.86-.3,14.05,1.3,15.13.05.03.09.05.16.06,5.08.97.81-13.14,4.22-14.82,1.85,3.58,4.62,8.45,5.26,6.12.06-.25.11-.59.13-1.03.11-3.27-3.85-12.03-6.27-14.11ZM65.84,17.97c-4.93-4.24-11.73,10.7-10.69,14.77l1.92.8c.84.36,1.83,0,2.24-.83l1.74-6.09c.34,1.86-.3,14.05,1.3,15.13.05.03.09.05.16.06,5.08.97.81-13.14,4.22-14.82,1.85,3.58,4.62,8.45,5.26,6.12.06-.25.11-.59.13-1.03.11-3.27-3.85-12.03-6.27-14.11ZM65.84,17.97c-4.93-4.24-11.73,10.7-10.69,14.77l1.92.8c.84.36,1.83,0,2.24-.83l1.74-6.09c.34,1.86-.3,14.05,1.3,15.13.05.03.09.05.16.06,5.08.97.81-13.14,4.22-14.82,1.85,3.58,4.62,8.45,5.26,6.12.06-.25.11-.59.13-1.03.11-3.27-3.85-12.03-6.27-14.11ZM65.84,17.97c-4.93-4.24-11.73,10.7-10.69,14.77l1.92.8c.84.36,1.83,0,2.24-.83l1.74-6.09c.34,1.86-.3,14.05,1.3,15.13.05.03.09.05.16.06,5.08.97.81-13.14,4.22-14.82,1.85,3.58,4.62,8.45,5.26,6.12.06-.25.11-.59.13-1.03.11-3.27-3.85-12.03-6.27-14.11ZM65.84,17.97c-4.93-4.24-11.73,10.7-10.69,14.77l1.92.8c.84.36,1.83,0,2.24-.83l1.74-6.09c.34,1.86-.3,14.05,1.3,15.13.05.03.09.05.16.06,5.08.97.81-13.14,4.22-14.82,1.85,3.58,4.62,8.45,5.26,6.12.06-.25.11-.59.13-1.03.11-3.27-3.85-12.03-6.27-14.11ZM65.84,17.97c-4.93-4.24-11.73,10.7-10.69,14.77l1.92.8c.84.36,1.83,0,2.24-.83l1.74-6.09c.34,1.86-.3,14.05,1.3,15.13.05.03.09.05.16.06,5.08.97.81-13.14,4.22-14.82,1.85,3.58,4.62,8.45,5.26,6.12.06-.25.11-.59.13-1.03.11-3.27-3.85-12.03-6.27-14.11ZM86.35,22.18c-1.8-9.4-13.16-19.01-22.86-17.68-8.26,1.13-15.22,4.73-19.24,12.33-7.01,13.28-1.02,38.32,16.52,38.71,3.22.06,17.79-4.35,19.93-6.49,4.63-4.66,6.85-20.51,5.65-26.86ZM75.41,41.62c-1,.8-11.97,2.83-13.83,2.86-14.61.25-12.11-21.83-4.69-29.51,9.11-1.82,14.05-2.8,17.95,6.79,1.97,4.9,5.23,16.13.58,19.85ZM65.84,17.97c-4.93-4.24-11.73,10.7-10.69,14.77l1.92.8c.84.36,1.83,0,2.24-.83l1.74-6.09c.34,1.86-.3,14.05,1.3,15.13.05.03.09.05.16.06,5.08.97.81-13.14,4.22-14.82,1.85,3.58,4.62,8.45,5.26,6.12.06-.25.11-.59.13-1.03.11-3.27-3.85-12.03-6.27-14.11ZM65.84,17.97c-4.93-4.24-11.73,10.7-10.69,14.77l1.92.8c.84.36,1.83,0,2.24-.83l1.74-6.09c.34,1.86-.3,14.05,1.3,15.13.05.03.09.05.16.06,5.08.97.81-13.14,4.22-14.82,1.85,3.58,4.62,8.45,5.26,6.12.06-.25.11-.59.13-1.03.11-3.27-3.85-12.03-6.27-14.11ZM65.84,17.97c-4.93-4.24-11.73,10.7-10.69,14.77l1.92.8c.84.36,1.83,0,2.24-.83l1.74-6.09c.34,1.86-.3,14.05,1.3,15.13.05.03.09.05.16.06,5.08.97.81-13.14,4.22-14.82,1.85,3.58,4.62,8.45,5.26,6.12.06-.25.11-.59.13-1.03.11-3.27-3.85-12.03-6.27-14.11ZM65.84,17.97c-4.93-4.24-11.73,10.7-10.69,14.77l1.92.8c.84.36,1.83,0,2.24-.83l1.74-6.09c.34,1.86-.3,14.05,1.3,15.13.05.03.09.05.16.06,5.08.97.81-13.14,4.22-14.82,1.85,3.58,4.62,8.45,5.26,6.12.06-.25.11-.59.13-1.03.11-3.27-3.85-12.03-6.27-14.11ZM65.84,17.97c-4.93-4.24-11.73,10.7-10.69,14.77l1.92.8c.84.36,1.83,0,2.24-.83l1.74-6.09c.34,1.86-.3,14.05,1.3,15.13.05.03.09.05.16.06,5.08.97.81-13.14,4.22-14.82,1.85,3.58,4.62,8.45,5.26,6.12.06-.25.11-.59.13-1.03.11-3.27-3.85-12.03-6.27-14.11Z"/>
  <path d="M140.14,32.17c6.31-7.2,3.76-22.3-7.79-23.59-6.02-.67-17.62-.94-23.88-.92-1.92,0-14.47,1.2-14.9,1.81l.8,43.95,9.84.47c1.96-3.69-1.99-12.63.36-14.22,10.03-2.44,28.15.99,35.56-7.49ZM104.64,19.66c2.46-.64,5.15.91,7.28.89,4.57-.03,28.24-4.29,21.61,7.13-3.68,6.34-22.44,2.47-28.9,3.08l.02-11.11Z"/>
  <path d="M86.35,22.18c-1.8-9.4-13.16-19.01-22.86-17.68-8.26,1.13-15.22,4.73-19.24,12.33-7.01,13.28-1.02,38.32,16.52,38.71,3.22.06,17.79-4.35,19.93-6.49,4.63-4.66,6.85-20.51,5.65-26.86ZM75.41,41.62c-1,.8-11.97,2.83-13.83,2.86-14.61.25-12.11-21.83-4.69-29.51,9.11-1.82,14.05-2.8,17.95,6.79,1.97,4.9,5.23,16.13.58,19.85Z"/>
  <path d="M42.27,14.42c-5.93-.08-11.69.22-17.38,1.75-.06.59-.11,1.2-.14,1.82-.66,10.94,1.85,24.86.22,35.38-.25,1.63-3,2.6-5.15,2.14-1.33-.81-1.13-1.71-1.31-2.97-1.67-11.59-1.35-24.53-1.69-36.28l-13.88.74C.37,16.32,0,12.42,1.05,10.28c1.97-4.05,11.08-1.67,14.41-1.78,6.52-.2,17.07-2.16,23.09-1.66,5.1.41,5.71,3.21,3.72,7.59Z"/>
  <path d="M72.11,32.09c-.02.44-.06.78-.13,1.03-.64,2.33-3.41-2.53-5.26-6.12-3.41,1.67.86,15.79-4.22,14.82-.06-.02-.11-.03-.16-.06-1.6-1.08-.95-13.27-1.3-15.13l-1.74,6.09c-.41.83-1.39,1.19-2.24.83l-1.92-.8c-1.05-4.07,5.76-19.01,10.69-14.77,2.43,2.08,6.38,10.84,6.27,14.11Z"/>
</svg>