<?xml version="1.0" encoding="UTF-8"?>
<svg id="Layer_1" xmlns="http://www.w3.org/2000/svg" version="1.1" viewBox="0 0 112 44">
  <!-- Generator: Adobe Illustrator 29.5.1, SVG Export Plug-In . SVG Version: 2.1.0 Build 141)  -->
  <defs>
    <style>
      .st0 {
        fill: #fff;
      }
    </style>
  </defs>
  <path class="st0" d="M108.89,23.68c4.89-5.59,2.91-17.31-6.05-18.31-4.68-.52-13.68-.73-18.53-.72-1.49,0-11.23.94-11.56,1.41l.62,34.11,7.64.36c1.52-2.87-1.54-9.8.28-11.04,7.78-1.89,21.85.77,27.61-5.82ZM81.33,13.98c1.91-.5,4,.7,5.65.69,3.55-.02,21.92-3.33,16.77,5.54-2.85,4.92-17.42,1.92-22.43,2.39v-8.62ZM51.22,12.67c-3.83-3.29-9.11,8.31-8.29,11.46l1.49.62c.66.28,1.42,0,1.74-.64l1.35-4.72c.27,1.45-.23,10.91,1.01,11.74.04.02.07.04.12.05,3.95.75.63-10.2,3.28-11.5,1.43,2.78,3.58,6.56,4.08,4.75.05-.19.09-.46.1-.8.09-2.54-2.99-9.34-4.87-10.95ZM51.22,12.67c-3.83-3.29-9.11,8.31-8.29,11.46l1.49.62c.66.28,1.42,0,1.74-.64l1.35-4.72c.27,1.45-.23,10.91,1.01,11.74.04.02.07.04.12.05,3.95.75.63-10.2,3.28-11.5,1.43,2.78,3.58,6.56,4.08,4.75.05-.19.09-.46.1-.8.09-2.54-2.99-9.34-4.87-10.95ZM51.22,12.67c-3.83-3.29-9.11,8.31-8.29,11.46l1.49.62c.66.28,1.42,0,1.74-.64l1.35-4.72c.27,1.45-.23,10.91,1.01,11.74.04.02.07.04.12.05,3.95.75.63-10.2,3.28-11.5,1.43,2.78,3.58,6.56,4.08,4.75.05-.19.09-.46.1-.8.09-2.54-2.99-9.34-4.87-10.95ZM51.22,12.67c-3.83-3.29-9.11,8.31-8.29,11.46l1.49.62c.66.28,1.42,0,1.74-.64l1.35-4.72c.27,1.45-.23,10.91,1.01,11.74.04.02.07.04.12.05,3.95.75.63-10.2,3.28-11.5,1.43,2.78,3.58,6.56,4.08,4.75.05-.19.09-.46.1-.8.09-2.54-2.99-9.34-4.87-10.95ZM51.22,12.67c-3.83-3.29-9.11,8.31-8.29,11.46l1.49.62c.66.28,1.42,0,1.74-.64l1.35-4.72c.27,1.45-.23,10.91,1.01,11.74.04.02.07.04.12.05,3.95.75.63-10.2,3.28-11.5,1.43,2.78,3.58,6.56,4.08,4.75.05-.19.09-.46.1-.8.09-2.54-2.99-9.34-4.87-10.95ZM51.22,12.67c-3.83-3.29-9.11,8.31-8.29,11.46l1.49.62c.66.28,1.42,0,1.74-.64l1.35-4.72c.27,1.45-.23,10.91,1.01,11.74.04.02.07.04.12.05,3.95.75.63-10.2,3.28-11.5,1.43,2.78,3.58,6.56,4.08,4.75.05-.19.09-.46.1-.8.09-2.54-2.99-9.34-4.87-10.95ZM67.14,15.93c-1.4-7.3-10.21-14.76-17.74-13.72-6.41.87-11.82,3.67-14.94,9.57-5.44,10.31-.79,29.74,12.82,30.05,2.5.05,13.81-3.38,15.47-5.04,3.59-3.62,5.32-15.92,4.38-20.85ZM58.65,31.02c-.78.62-9.29,2.2-10.74,2.22-11.34.19-9.4-16.94-3.64-22.91,7.07-1.41,10.91-2.17,13.93,5.27,1.53,3.8,4.06,12.52.45,15.41ZM51.22,12.67c-3.83-3.29-9.11,8.31-8.29,11.46l1.49.62c.66.28,1.42,0,1.74-.64l1.35-4.72c.27,1.45-.23,10.91,1.01,11.74.04.02.07.04.12.05,3.95.75.63-10.2,3.28-11.5,1.43,2.78,3.58,6.56,4.08,4.75.05-.19.09-.46.1-.8.09-2.54-2.99-9.34-4.87-10.95ZM51.22,12.67c-3.83-3.29-9.11,8.31-8.29,11.46l1.49.62c.66.28,1.42,0,1.74-.64l1.35-4.72c.27,1.45-.23,10.91,1.01,11.74.04.02.07.04.12.05,3.95.75.63-10.2,3.28-11.5,1.43,2.78,3.58,6.56,4.08,4.75.05-.19.09-.46.1-.8.09-2.54-2.99-9.34-4.87-10.95ZM51.22,12.67c-3.83-3.29-9.11,8.31-8.29,11.46l1.49.62c.66.28,1.42,0,1.74-.64l1.35-4.72c.27,1.45-.23,10.91,1.01,11.74.04.02.07.04.12.05,3.95.75.63-10.2,3.28-11.5,1.43,2.78,3.58,6.56,4.08,4.75.05-.19.09-.46.1-.8.09-2.54-2.99-9.34-4.87-10.95ZM51.22,12.67c-3.83-3.29-9.11,8.31-8.29,11.46l1.49.62c.66.28,1.42,0,1.74-.64l1.35-4.72c.27,1.45-.23,10.91,1.01,11.74.04.02.07.04.12.05,3.95.75.63-10.2,3.28-11.5,1.43,2.78,3.58,6.56,4.08,4.75.05-.19.09-.46.1-.8.09-2.54-2.99-9.34-4.87-10.95ZM51.22,12.67c-3.83-3.29-9.11,8.31-8.29,11.46l1.49.62c.66.28,1.42,0,1.74-.64l1.35-4.72c.27,1.45-.23,10.91,1.01,11.74.04.02.07.04.12.05,3.95.75.63-10.2,3.28-11.5,1.43,2.78,3.58,6.56,4.08,4.75.05-.19.09-.46.1-.8.09-2.54-2.99-9.34-4.87-10.95Z"/>
  <path d="M108.89,23.68c4.89-5.59,2.91-17.31-6.05-18.31-4.68-.52-13.68-.73-18.53-.72-1.49,0-11.23.94-11.56,1.41l.62,34.11,7.64.36c1.52-2.87-1.54-9.8.28-11.04,7.78-1.89,21.85.77,27.61-5.82ZM81.33,13.98c1.91-.5,4,.7,5.65.69,3.55-.02,21.92-3.33,16.77,5.54-2.85,4.92-17.42,1.92-22.43,2.39v-8.62Z"/>
  <path d="M67.14,15.93c-1.4-7.3-10.21-14.76-17.74-13.72-6.41.87-11.82,3.67-14.94,9.57-5.44,10.31-.79,29.74,12.82,30.05,2.5.05,13.81-3.38,15.47-5.04,3.59-3.62,5.32-15.92,4.38-20.85ZM58.65,31.02c-.78.62-9.29,2.2-10.74,2.22-11.34.19-9.4-16.94-3.64-22.91,7.07-1.41,10.91-2.17,13.93,5.27,1.53,3.8,4.06,12.52.45,15.41Z"/>
  <path d="M32.93,9.91c-4.6-.06-9.07.17-13.49,1.36-.05.46-.09.94-.11,1.41-.51,8.49,1.43,19.3.17,27.46-.19,1.26-2.33,2.02-4,1.66-1.03-.63-.87-1.32-1.02-2.31-1.3-9-1.04-19.04-1.31-28.16l-10.77.57C.4,11.38.11,8.35.92,6.69c1.53-3.15,8.6-1.3,11.19-1.38,5.06-.16,13.25-1.68,17.93-1.29,3.96.32,4.43,2.49,2.89,5.89Z"/>
  <path d="M56.09,23.62c-.01.34-.05.61-.1.8-.5,1.81-2.65-1.97-4.08-4.75-2.65,1.3.67,12.25-3.28,11.5-.05-.01-.09-.02-.12-.05-1.24-.84-.74-10.3-1.01-11.74l-1.35,4.72c-.32.64-1.08.92-1.74.64l-1.49-.62c-.81-3.16,4.47-14.76,8.29-11.46,1.88,1.62,4.96,8.42,4.87,10.95Z"/>
</svg>