<?xml version="1.0" encoding="UTF-8"?>
<svg id="Layer_1" xmlns="http://www.w3.org/2000/svg" version="1.1" viewBox="0 0 112 44">
  <!-- Generator: Adobe Illustrator 29.5.1, SVG Export Plug-In . SVG Version: 2.1.0 Build 141)  -->
  <defs>
    <style>
      .st0 {
        fill: #fff;
      }
    </style>
  </defs>
  <path class="st0" d="M107.86,23.65c4.8-5.48,2.86-16.97-5.93-17.96-4.58-.51-13.41-.71-18.17-.7-1.46,0-11.02.92-11.34,1.38l.61,33.45,7.49.36c1.49-2.81-1.51-9.61.27-10.82,7.63-1.86,21.42.75,27.07-5.7ZM80.84,14.13c1.87-.49,3.92.69,5.54.68,3.48-.02,21.49-3.26,16.45,5.43-2.8,4.82-17.08,1.88-21.99,2.35v-8.45ZM51.31,12.85c-3.75-3.23-8.93,8.15-8.13,11.24l1.46.61c.64.27,1.39,0,1.7-.63l1.32-4.63c.26,1.42-.23,10.69.99,11.52.04.02.07.04.12.05,3.87.74.62-10,3.22-11.28,1.41,2.73,3.51,6.43,4,4.66.05-.19.08-.45.1-.79.08-2.49-2.93-9.16-4.78-10.74ZM51.31,12.85c-3.75-3.23-8.93,8.15-8.13,11.24l1.46.61c.64.27,1.39,0,1.7-.63l1.32-4.63c.26,1.42-.23,10.69.99,11.52.04.02.07.04.12.05,3.87.74.62-10,3.22-11.28,1.41,2.73,3.51,6.43,4,4.66.05-.19.08-.45.1-.79.08-2.49-2.93-9.16-4.78-10.74ZM51.31,12.85c-3.75-3.23-8.93,8.15-8.13,11.24l1.46.61c.64.27,1.39,0,1.7-.63l1.32-4.63c.26,1.42-.23,10.69.99,11.52.04.02.07.04.12.05,3.87.74.62-10,3.22-11.28,1.41,2.73,3.51,6.43,4,4.66.05-.19.08-.45.1-.79.08-2.49-2.93-9.16-4.78-10.74ZM51.31,12.85c-3.75-3.23-8.93,8.15-8.13,11.24l1.46.61c.64.27,1.39,0,1.7-.63l1.32-4.63c.26,1.42-.23,10.69.99,11.52.04.02.07.04.12.05,3.87.74.62-10,3.22-11.28,1.41,2.73,3.51,6.43,4,4.66.05-.19.08-.45.1-.79.08-2.49-2.93-9.16-4.78-10.74ZM51.31,12.85c-3.75-3.23-8.93,8.15-8.13,11.24l1.46.61c.64.27,1.39,0,1.7-.63l1.32-4.63c.26,1.42-.23,10.69.99,11.52.04.02.07.04.12.05,3.87.74.62-10,3.22-11.28,1.41,2.73,3.51,6.43,4,4.66.05-.19.08-.45.1-.79.08-2.49-2.93-9.16-4.78-10.74ZM51.31,12.85c-3.75-3.23-8.93,8.15-8.13,11.24l1.46.61c.64.27,1.39,0,1.7-.63l1.32-4.63c.26,1.42-.23,10.69.99,11.52.04.02.07.04.12.05,3.87.74.62-10,3.22-11.28,1.41,2.73,3.51,6.43,4,4.66.05-.19.08-.45.1-.79.08-2.49-2.93-9.16-4.78-10.74ZM66.92,16.05c-1.37-7.16-10.01-14.47-17.4-13.46-6.29.86-11.59,3.6-14.65,9.38-5.33,10.11-.77,29.16,12.58,29.46,2.45.05,13.54-3.31,15.17-4.94,3.52-3.55,5.22-15.61,4.3-20.45ZM58.6,30.84c-.76.61-9.11,2.16-10.53,2.18-11.12.19-9.22-16.61-3.57-22.46,6.93-1.38,10.69-2.13,13.66,5.17,1.5,3.73,3.98,12.28.44,15.11ZM51.31,12.85c-3.75-3.23-8.93,8.15-8.13,11.24l1.46.61c.64.27,1.39,0,1.7-.63l1.32-4.63c.26,1.42-.23,10.69.99,11.52.04.02.07.04.12.05,3.87.74.62-10,3.22-11.28,1.41,2.73,3.51,6.43,4,4.66.05-.19.08-.45.1-.79.08-2.49-2.93-9.16-4.78-10.74ZM51.31,12.85c-3.75-3.23-8.93,8.15-8.13,11.24l1.46.61c.64.27,1.39,0,1.7-.63l1.32-4.63c.26,1.42-.23,10.69.99,11.52.04.02.07.04.12.05,3.87.74.62-10,3.22-11.28,1.41,2.73,3.51,6.43,4,4.66.05-.19.08-.45.1-.79.08-2.49-2.93-9.16-4.78-10.74ZM51.31,12.85c-3.75-3.23-8.93,8.15-8.13,11.24l1.46.61c.64.27,1.39,0,1.7-.63l1.32-4.63c.26,1.42-.23,10.69.99,11.52.04.02.07.04.12.05,3.87.74.62-10,3.22-11.28,1.41,2.73,3.51,6.43,4,4.66.05-.19.08-.45.1-.79.08-2.49-2.93-9.16-4.78-10.74ZM51.31,12.85c-3.75-3.23-8.93,8.15-8.13,11.24l1.46.61c.64.27,1.39,0,1.7-.63l1.32-4.63c.26,1.42-.23,10.69.99,11.52.04.02.07.04.12.05,3.87.74.62-10,3.22-11.28,1.41,2.73,3.51,6.43,4,4.66.05-.19.08-.45.1-.79.08-2.49-2.93-9.16-4.78-10.74ZM51.31,12.85c-3.75-3.23-8.93,8.15-8.13,11.24l1.46.61c.64.27,1.39,0,1.7-.63l1.32-4.63c.26,1.42-.23,10.69.99,11.52.04.02.07.04.12.05,3.87.74.62-10,3.22-11.28,1.41,2.73,3.51,6.43,4,4.66.05-.19.08-.45.1-.79.08-2.49-2.93-9.16-4.78-10.74Z"/>
  <path d="M107.86,23.65c4.8-5.48,2.86-16.97-5.93-17.96-4.58-.51-13.41-.71-18.17-.7-1.46,0-11.02.92-11.34,1.38l.61,33.45,7.49.36c1.49-2.81-1.51-9.61.27-10.82,7.63-1.86,21.42.75,27.07-5.7ZM80.84,14.13c1.87-.49,3.92.69,5.54.68,3.48-.02,21.49-3.26,16.45,5.43-2.8,4.82-17.08,1.88-21.99,2.35v-8.45Z"/>
  <path d="M66.92,16.05c-1.37-7.16-10.01-14.47-17.4-13.46-6.29.86-11.59,3.6-14.65,9.38-5.33,10.11-.77,29.16,12.58,29.46,2.45.05,13.54-3.31,15.17-4.94,3.52-3.55,5.22-15.61,4.3-20.45ZM58.6,30.84c-.76.61-9.11,2.16-10.53,2.18-11.12.19-9.22-16.61-3.57-22.46,6.93-1.38,10.69-2.13,13.66,5.17,1.5,3.73,3.98,12.28.44,15.11Z"/>
  <path d="M33.37,10.14c-4.51-.06-8.9.17-13.23,1.33-.05.45-.08.92-.11,1.38-.5,8.32,1.41,18.92.17,26.92-.19,1.24-2.29,1.98-3.92,1.63-1.01-.62-.86-1.3-1-2.26-1.27-8.82-1.02-18.67-1.29-27.62l-10.56.56c-1.95-.51-2.24-3.48-1.44-5.11,1.5-3.08,8.43-1.27,10.97-1.36,4.97-.15,12.99-1.64,17.58-1.26,3.88.31,4.35,2.44,2.83,5.78Z"/>
  <path d="M56.08,23.59c-.01.33-.05.6-.1.79-.49,1.77-2.6-1.93-4-4.66-2.6,1.27.65,12.02-3.22,11.28-.05-.01-.08-.02-.12-.05-1.21-.82-.73-10.1-.99-11.52l-1.32,4.63c-.31.63-1.06.91-1.7.63l-1.46-.61c-.8-3.1,4.38-14.47,8.13-11.24,1.85,1.58,4.86,8.25,4.78,10.74Z"/>
</svg>